<svg viewBox="0 0 1000 383" xmlns="http://www.w3.org/2000/svg">
  <style>
    .main {
      fill: #c00;
    }
    .second {
      fill: #fdfbfb;
    }
  </style>
  <path class="main" d=" M 381.18 10.00 C 394.05 4.92 408.22 3.83 421.96 3.75 C 443.58 3.38 465.13 6.49 486.76 5.60 C 486.56 30.40 487.13 55.20 487.00 80.00 C 487.00 137.67 487.00 195.35 487.00 253.02 C 487.12 282.76 486.55 312.49 486.76 342.22 C 394.30 342.24 301.85 342.27 209.39 342.21 C 239.31 315.20 268.00 286.76 299.51 261.56 C 301.46 260.09 303.34 258.04 306.00 258.18 C 329.55 256.26 353.18 257.92 376.77 257.49 C 376.74 233.32 376.77 209.16 376.76 185.00 C 376.73 177.08 376.92 169.14 376.44 161.23 C 317.14 211.05 257.70 260.69 198.50 310.62 C 186.37 320.45 175.32 331.72 161.98 339.97 C 160.78 340.67 159.54 341.46 158.10 341.46 C 106.63 343.81 55.09 341.42 3.60 342.49 C 19.41 327.99 35.69 314.01 51.70 299.73 C 112.20 246.23 172.80 192.83 233.45 139.49 C 282.68 96.31 331.74 52.93 381.18 10.00 Z" />
  <path class="main" d=" M 575.22 31.13 C 604.79 13.40 639.48 3.77 674.02 5.50 C 725.44 5.53 776.86 5.34 828.27 5.85 C 814.93 15.18 800.91 23.50 787.16 32.21 C 767.43 44.44 747.60 56.52 727.98 68.92 C 721.93 72.53 716.42 77.25 709.58 79.35 C 695.19 84.07 679.84 81.65 665.01 82.90 C 648.12 84.73 631.50 89.58 616.41 97.42 C 596.83 107.47 579.47 123.81 572.43 145.09 C 569.73 154.54 566.58 164.17 567.39 174.13 C 568.47 191.97 577.36 208.58 589.52 221.37 C 600.39 232.40 613.41 241.30 627.64 247.42 C 646.38 255.51 666.65 259.39 686.89 261.19 C 688.03 288.47 687.31 315.79 687.47 343.08 C 646.86 340.83 606.11 330.70 570.96 309.80 C 552.64 298.86 536.05 284.87 522.70 268.18 C 514.58 258.65 507.63 248.10 502.39 236.72 C 485.14 199.56 484.31 155.37 499.24 117.32 C 514.28 81.31 541.82 51.07 575.22 31.13 Z" />
  <path class="main" d=" M 818.63 16.78 C 829.10 9.90 841.27 4.07 854.12 5.20 C 877.74 8.30 901.51 3.20 925.17 5.65 C 938.88 6.90 952.71 11.51 963.00 20.95 C 990.72 46.06 1002.40 86.66 994.62 122.95 C 990.61 141.68 980.15 159.25 964.53 170.57 C 975.81 182.91 985.25 197.17 990.58 213.10 C 994.92 225.52 996.41 238.85 995.38 251.95 C 996.82 265.44 994.49 279.29 988.51 291.49 C 979.39 310.59 963.01 326.05 943.63 334.48 C 939.26 336.27 934.81 338.22 930.03 338.48 C 895.80 341.05 861.46 341.30 827.22 343.40 C 827.28 313.27 827.23 283.14 827.24 253.00 C 851.62 252.51 876.04 254.63 900.35 252.25 C 905.32 252.34 908.96 248.25 911.37 244.37 C 916.59 235.22 915.77 222.36 907.99 214.88 C 905.28 212.41 901.81 210.68 898.12 210.48 C 874.52 208.96 850.88 210.59 827.25 210.23 C 827.25 182.16 827.25 154.08 827.24 126.00 C 853.19 125.40 879.29 128.35 905.11 124.63 C 909.15 124.40 912.00 121.00 913.88 117.74 C 917.91 110.16 917.01 100.20 911.72 93.45 C 908.90 89.84 904.61 87.48 900.04 87.11 C 871.87 83.61 843.49 86.38 815.22 85.78 C 815.26 136.51 815.23 187.25 815.24 237.99 C 815.27 272.89 815.10 307.80 815.51 342.69 C 783.10 343.39 750.66 342.81 718.24 343.00 C 718.25 315.67 718.24 288.34 718.25 261.01 C 717.75 222.35 718.11 183.67 718.00 145.00 C 718.21 123.64 718.54 102.28 719.01 80.93 C 733.46 70.09 748.88 60.64 764.29 51.25 C 782.65 40.15 800.82 28.74 818.63 16.78 Z" />
  <path class="main" d=" M 134.39 350.55 C 140.76 348.37 148.02 348.37 154.26 350.98 C 158.42 352.68 161.27 356.70 162.01 361.08 C 162.97 366.37 162.79 372.24 159.96 376.96 C 158.08 380.20 154.51 381.84 151.11 383.00 L 136.45 383.00 C 133.12 381.91 129.79 380.20 127.84 377.16 C 124.80 372.47 124.85 366.50 125.63 361.16 C 126.37 356.37 129.78 352.13 134.39 350.55 Z" />
  <path class="main" d=" M 553.58 351.51 C 558.59 348.88 564.53 348.60 570.04 349.38 C 575.06 350.10 580.31 352.74 582.23 357.74 C 584.42 363.52 584.40 370.30 581.79 375.95 C 580.05 379.73 576.14 381.78 572.35 383.00 L 558.13 383.00 C 554.76 382.11 551.42 380.50 549.37 377.58 C 546.21 373.12 546.12 367.30 546.74 362.08 C 547.23 357.75 549.64 353.55 553.58 351.51 Z" />
  <path class="main" d=" M 22.01 350.95 C 29.14 348.97 36.77 349.68 44.08 350.09 C 44.98 355.68 44.32 361.37 44.49 367.00 C 44.32 372.33 45.12 377.77 43.77 383.00 L 36.49 383.00 C 35.87 380.38 35.72 377.68 35.60 375.00 C 30.19 375.00 24.79 375.00 19.38 375.00 C 18.60 377.74 18.00 380.63 16.30 383.00 L 8.53 383.00 C 9.99 375.60 12.22 368.38 14.02 361.05 C 14.82 356.62 17.42 352.23 22.01 350.95 Z" />
  <path class="main" d=" M 52.03 350.00 C 59.00 349.46 66.01 349.81 73.00 349.80 C 77.61 349.77 82.93 352.18 83.97 357.08 C 84.95 360.07 83.19 362.85 81.69 365.29 C 84.39 367.71 86.33 371.24 85.33 374.97 C 84.61 379.72 79.83 382.20 75.54 383.00 L 51.51 383.00 C 50.47 374.38 51.24 365.67 50.97 357.01 C 51.19 354.70 50.42 351.93 52.03 350.00 Z" />
  <path class="main" d=" M 93.97 351.01 C 99.72 348.88 106.05 349.46 112.04 349.96 C 116.56 350.59 122.05 353.64 121.76 358.88 C 121.07 361.39 118.10 360.84 116.12 360.69 C 113.75 359.84 112.70 356.76 110.05 356.43 C 106.47 356.08 102.81 355.89 99.26 356.47 C 97.59 356.73 96.98 358.54 97.77 359.95 C 104.48 363.93 113.31 362.49 119.58 367.45 C 123.55 370.32 123.45 376.73 120.06 380.00 C 118.06 381.88 115.27 382.46 112.66 383.00 L 97.76 383.00 C 95.03 382.04 92.17 381.01 90.16 378.83 C 88.51 377.19 88.64 374.68 88.17 372.58 C 90.34 372.24 92.52 372.03 94.71 371.89 C 96.53 373.74 98.12 376.57 101.09 376.45 C 104.82 376.50 108.67 377.04 112.33 376.20 C 114.49 375.64 114.17 372.49 112.18 371.97 C 105.54 369.22 97.70 369.61 91.70 365.30 C 86.72 361.73 88.25 352.96 93.97 351.01 Z" />
  <path class="main" d=" M 168.02 350.02 C 170.47 350.01 174.36 348.53 175.79 351.08 C 176.31 359.53 175.84 368.03 176.00 376.50 C 183.13 376.70 190.31 376.10 197.41 376.75 C 199.42 378.33 198.26 381.02 197.63 383.00 L 167.70 383.00 C 166.78 375.04 167.46 367.01 167.22 359.02 C 167.33 356.02 166.79 352.85 168.02 350.02 Z" />
  <path class="main" d=" M 201.14 351.96 C 201.59 348.28 206.50 350.03 209.04 349.94 C 211.10 357.61 208.42 365.91 210.50 373.63 C 211.85 376.98 216.07 376.80 219.07 376.78 C 221.77 376.85 225.07 375.67 225.46 372.60 C 226.38 365.44 225.18 358.16 225.99 350.99 C 227.85 348.70 231.42 349.88 233.97 350.12 C 235.06 354.64 234.31 359.35 234.52 363.95 C 234.41 368.71 235.21 374.07 232.15 378.14 C 230.25 380.99 226.91 382.26 223.71 383.00 L 212.20 383.00 C 206.95 382.37 202.05 378.54 201.41 373.09 C 200.68 366.09 200.96 358.99 201.14 351.96 Z" />
  <path class="main" d=" M 238.18 350.22 C 242.40 349.28 246.77 349.89 251.06 349.76 C 257.72 349.95 264.43 349.32 271.07 350.09 C 271.69 351.97 271.68 354.02 271.07 355.90 C 267.08 356.52 263.02 356.20 259.00 356.24 C 258.60 365.14 259.85 374.20 258.29 383.00 L 250.70 383.00 C 249.75 374.11 250.47 365.15 250.24 356.23 C 246.19 356.19 242.10 356.57 238.09 355.85 C 237.66 354.00 237.48 352.02 238.18 350.22 Z" />
  <path class="main" d=" M 276.03 350.06 C 281.33 349.39 286.69 349.89 292.02 349.76 C 296.65 349.88 301.35 349.31 305.93 350.20 C 306.46 352.05 307.46 355.12 305.05 356.04 C 298.05 356.58 291.01 356.07 284.00 356.24 C 284.00 358.49 283.99 360.74 284.00 363.00 C 289.71 363.09 295.43 362.82 301.13 363.10 C 304.31 362.96 304.20 367.19 303.05 369.20 C 296.73 369.89 290.35 369.35 284.01 369.48 C 283.99 371.82 284.00 374.16 284.00 376.50 C 291.45 376.59 298.91 376.25 306.35 376.77 C 306.18 378.85 305.95 380.92 305.71 383.00 L 275.85 383.00 C 274.59 375.74 275.53 368.33 275.23 361.00 C 275.41 357.37 274.61 353.51 276.03 350.06 Z" />
  <path class="main" d=" M 326.91 357.77 C 328.98 352.49 334.76 349.90 340.12 349.66 C 345.74 349.33 351.97 348.87 356.89 352.14 C 359.81 353.86 361.82 357.52 360.93 360.90 C 359.97 363.12 357.00 362.16 355.11 362.11 C 352.39 360.67 351.56 356.47 348.09 356.20 C 344.49 355.83 340.58 355.70 337.22 357.25 C 334.05 359.32 334.24 363.68 334.18 367.02 C 334.26 370.21 334.51 374.63 338.08 375.88 C 341.53 377.01 345.30 377.01 348.87 376.50 C 351.91 375.95 352.97 372.54 355.13 370.74 C 357.08 370.23 359.14 370.45 361.10 370.82 C 363.44 377.18 357.16 381.99 351.59 383.00 L 338.39 383.00 C 333.62 382.21 328.67 379.72 326.88 374.93 C 324.89 369.48 324.91 363.21 326.91 357.77 Z" />
  <path class="main" d=" M 367.01 349.96 C 369.47 349.57 372.11 349.45 374.47 350.39 C 375.05 354.39 374.69 358.45 374.74 362.48 C 380.08 362.51 385.42 362.50 390.77 362.50 C 390.80 358.67 390.49 354.82 390.99 351.01 C 392.74 348.82 396.39 349.60 398.78 350.28 C 400.30 354.24 399.20 358.81 399.50 363.02 C 399.14 369.67 400.38 376.49 398.66 383.00 L 391.51 383.00 C 390.32 378.43 390.80 373.67 390.78 369.00 C 385.43 369.00 380.09 369.00 374.74 369.00 C 374.72 373.66 375.07 378.38 374.25 383.00 L 366.51 383.00 C 365.47 374.38 366.25 365.68 365.97 357.02 C 366.16 354.69 365.46 351.95 367.01 349.96 Z" />
  <path class="main" d=" M 414.02 352.12 C 420.08 348.70 427.34 349.99 433.99 349.72 C 435.57 350.01 437.93 349.14 438.81 350.94 C 439.28 356.95 438.86 363.00 439.00 369.03 C 438.87 373.68 439.48 378.43 438.34 383.00 L 430.71 383.00 C 430.40 380.34 430.23 377.67 430.11 375.00 C 424.69 375.00 419.28 375.00 413.87 375.00 C 413.10 377.77 412.55 380.72 410.67 383.00 L 403.07 383.00 C 404.41 375.76 406.64 368.73 408.38 361.59 C 409.26 358.01 410.50 353.96 414.02 352.12 Z" />
  <path class="main" d=" M 446.09 350.17 C 449.97 349.48 453.97 349.52 457.87 349.98 C 459.28 350.01 459.65 351.68 460.21 352.68 C 462.52 358.93 464.45 365.31 466.81 371.55 C 469.67 364.63 471.18 357.16 474.60 350.50 C 478.48 349.08 482.89 349.72 486.96 349.99 C 487.17 350.26 487.59 350.82 487.80 351.10 C 488.30 357.73 487.84 364.40 488.00 371.05 C 487.88 375.03 488.51 379.15 487.22 383.00 L 479.83 383.00 C 479.16 374.83 479.68 366.63 479.45 358.45 C 477.12 364.54 474.97 370.70 472.82 376.87 C 472.07 379.05 471.11 381.18 469.66 383.00 L 463.80 383.00 C 459.42 375.43 457.62 366.68 454.30 358.63 C 453.82 366.74 455.11 374.99 453.46 383.00 L 445.87 383.00 C 445.16 375.35 445.64 367.66 445.48 359.99 C 445.53 356.72 445.15 353.35 446.09 350.17 Z" />
  <path class="main" d=" M 495.38 350.27 C 498.46 349.34 501.75 349.84 504.93 349.74 C 510.17 349.93 515.52 349.20 520.67 350.50 C 529.99 352.94 531.35 366.89 524.73 372.79 C 518.63 377.17 510.67 375.01 503.70 375.48 C 503.53 378.00 503.44 380.54 502.83 383.00 L 495.33 383.00 C 494.22 375.37 494.98 367.64 494.74 359.97 C 494.86 356.74 494.29 353.37 495.38 350.27 Z" />
  <path class="main" d=" M 533.30 350.27 C 535.75 349.40 538.45 349.56 540.96 350.15 C 542.13 354.99 541.26 360.06 541.49 365.00 C 541.24 370.99 542.22 377.11 540.76 383.00 L 533.34 383.00 C 532.28 376.04 532.92 368.99 532.75 361.99 C 532.83 358.09 532.34 354.09 533.30 350.27 Z" />
  <path class="main" d=" M 589.08 350.05 C 592.90 349.80 598.27 348.34 600.67 352.32 C 605.41 359.25 609.76 366.44 614.49 373.39 C 614.53 367.24 614.47 361.10 614.46 354.96 C 614.54 353.37 614.39 351.68 615.15 350.22 C 617.51 349.56 620.00 349.78 622.44 349.73 C 622.90 360.80 623.05 371.94 622.36 383.00 L 611.87 383.00 C 605.77 376.46 601.95 368.16 596.77 360.92 C 596.26 368.25 597.80 375.84 595.90 383.00 L 588.70 383.00 C 587.77 374.72 588.47 366.37 588.21 358.05 C 588.33 355.39 587.81 352.51 589.08 350.05 Z" />
  <path class="main" d=" M 631.17 352.18 C 637.33 348.37 645.13 349.51 652.01 350.09 C 656.35 350.88 661.36 353.97 661.05 358.99 C 660.04 361.41 657.13 360.87 655.06 360.65 C 652.66 359.27 651.28 356.00 648.12 356.28 C 644.44 356.26 640.46 355.50 637.01 357.11 C 636.28 358.49 636.76 360.02 638.22 360.66 C 644.76 363.66 652.73 362.87 658.67 367.31 C 662.84 370.19 662.77 376.88 659.15 380.16 C 657.11 381.96 654.34 382.51 651.75 383.00 L 638.21 383.00 C 633.20 382.34 626.61 378.99 627.80 372.93 C 629.52 371.67 631.86 371.76 633.85 372.22 C 635.95 373.62 637.34 376.46 640.17 376.42 C 643.88 376.54 647.68 376.98 651.35 376.27 C 653.46 375.93 653.68 373.02 651.82 372.18 C 645.10 369.11 636.94 369.75 630.83 365.21 C 626.70 362.12 627.13 355.15 631.17 352.18 Z" />
  <path class="main" d=" M 667.11 350.16 C 669.61 349.52 672.28 349.50 674.79 350.15 C 675.64 354.21 675.16 358.39 675.23 362.50 C 680.57 362.50 685.91 362.51 691.26 362.49 C 691.51 358.36 690.42 353.92 692.07 350.02 C 694.50 349.96 698.32 348.59 699.76 351.16 C 700.33 356.74 699.84 362.38 700.00 367.99 C 699.75 372.98 700.72 378.15 699.17 383.00 L 691.70 383.00 C 691.09 378.36 691.21 373.67 691.25 369.00 C 685.91 369.00 680.57 369.00 675.23 369.00 C 675.22 373.67 675.54 378.38 674.68 383.00 L 666.89 383.00 C 666.14 375.36 666.65 367.67 666.48 360.01 C 666.54 356.73 666.13 353.35 667.11 350.16 Z" />
  <path class="main" d=" M 707.14 350.15 C 709.64 349.52 712.31 349.50 714.82 350.18 C 715.72 355.39 715.07 360.72 715.23 365.99 C 715.06 371.65 715.85 377.43 714.52 383.00 L 706.83 383.00 C 706.18 375.02 706.65 367.01 706.47 359.02 C 706.52 356.06 706.17 353.00 707.14 350.15 Z" />
  <path class="main" d=" M 722.28 350.32 C 725.74 349.26 729.44 349.89 733.01 349.74 C 738.11 349.93 743.37 349.15 748.32 350.71 C 757.11 353.65 758.14 367.00 751.76 372.76 C 745.66 377.17 737.68 375.01 730.70 375.48 C 730.52 377.99 730.44 380.54 729.83 383.00 L 722.33 383.00 C 721.28 376.03 721.92 368.96 721.75 361.95 C 721.84 358.08 721.33 354.12 722.28 350.32 Z" />
  <path class="main" d=" M 777.06 350.19 C 783.64 349.23 790.35 349.96 797.00 349.74 C 801.82 349.54 807.74 351.30 809.30 356.43 C 810.58 359.59 808.90 362.70 807.13 365.25 C 809.51 367.56 811.69 370.57 810.97 374.11 C 810.61 379.34 805.42 382.44 800.67 383.00 L 776.86 383.00 C 776.16 375.35 776.64 367.67 776.48 360.00 C 776.51 356.73 776.18 353.38 777.06 350.19 Z" />
  <path class="main" d=" M 816.27 350.25 C 820.78 349.27 825.43 349.90 830.00 349.76 C 835.28 349.90 840.60 349.39 845.86 350.02 C 847.82 351.47 846.54 354.19 846.55 356.22 C 839.20 356.26 831.86 356.24 824.51 356.23 C 824.49 358.48 824.49 360.74 824.49 363.00 C 830.82 363.28 837.26 362.39 843.52 363.49 C 844.58 365.37 845.00 369.54 841.91 369.40 C 836.11 369.73 830.30 369.38 824.50 369.50 C 824.49 371.83 824.49 374.16 824.50 376.50 C 831.96 376.61 839.43 376.21 846.87 376.82 C 846.72 378.88 846.60 380.96 846.22 383.00 L 816.33 383.00 C 815.28 376.06 815.92 369.03 815.75 362.05 C 815.82 358.12 815.37 354.11 816.27 350.25 Z" />
  <path class="main" d=" M 851.99 350.00 C 856.97 349.44 862.00 349.88 867.01 349.74 C 871.40 349.80 876.27 349.23 880.10 351.87 C 884.17 354.40 885.80 360.29 883.38 364.47 C 881.91 366.97 878.89 367.69 876.41 368.76 C 880.58 372.74 883.70 377.71 885.92 383.00 L 877.50 383.00 C 874.41 380.12 872.67 376.21 870.05 372.97 C 867.52 369.99 863.18 370.96 859.75 370.65 C 859.74 374.76 860.08 378.95 859.15 383.00 L 851.51 383.00 C 850.47 374.38 851.24 365.67 850.97 357.02 C 851.15 354.69 850.47 351.99 851.99 350.00 Z" />
  <path class="main" d=" M 890.09 350.17 C 892.62 349.51 895.31 349.56 897.86 350.11 C 898.59 354.39 898.17 358.76 898.23 363.08 C 900.89 362.90 903.75 363.39 906.28 362.32 C 910.61 359.36 911.36 353.50 915.18 350.07 C 917.95 349.52 920.80 349.79 923.62 349.82 C 920.69 355.67 918.32 362.32 912.81 366.30 C 918.12 370.69 921.33 376.98 924.44 383.00 L 916.27 383.00 C 912.17 379.80 910.77 374.42 907.03 370.93 C 904.56 368.98 901.16 369.65 898.25 369.37 C 898.22 373.92 898.52 378.50 897.68 383.00 L 889.87 383.00 C 889.15 375.36 889.64 367.68 889.48 360.02 C 889.53 356.73 889.15 353.36 890.09 350.17 Z" />
  <path class="main" d=" M 927.08 350.18 C 929.60 349.51 932.29 349.55 934.85 350.11 C 936.01 357.54 934.45 365.14 935.68 372.56 C 936.15 376.02 940.00 376.89 942.94 376.80 C 945.66 376.82 949.43 376.73 950.62 373.71 C 952.58 365.99 949.78 357.63 952.06 350.01 C 954.69 349.42 957.40 349.93 960.02 350.39 C 959.82 357.92 960.33 365.48 959.76 372.99 C 959.14 378.34 954.44 382.15 949.34 383.00 L 937.32 383.00 C 934.17 382.20 930.84 380.96 928.95 378.16 C 926.05 374.06 926.56 368.77 926.48 364.02 C 926.66 359.41 925.95 354.70 927.08 350.18 Z" />
  <path class="main" d=" M 964.12 350.22 C 968.66 349.24 973.36 349.92 977.97 349.76 C 984.27 349.96 990.62 349.29 996.88 350.13 C 997.37 351.99 997.36 353.97 996.92 355.85 C 992.91 356.57 988.81 356.19 984.77 356.22 C 984.75 362.16 984.72 368.10 984.79 374.03 C 984.78 377.03 984.98 380.13 983.92 383.00 L 976.51 383.00 C 975.46 374.12 976.23 365.15 976.00 356.24 C 971.97 356.20 967.91 356.52 963.93 355.91 C 963.54 354.10 962.86 351.82 964.12 350.22 Z" />
  <path class="second" d=" M 140.47 355.67 C 143.85 354.90 147.80 355.10 150.64 357.27 C 153.64 359.97 153.97 364.39 153.73 368.17 C 153.53 371.54 152.11 375.35 148.70 376.63 C 145.08 377.89 140.65 377.92 137.39 375.70 C 133.82 372.94 133.74 367.97 134.06 363.88 C 134.27 360.18 136.58 356.32 140.47 355.67 Z" />
  <path class="second" d=" M 562.43 355.50 C 565.77 354.97 569.71 355.22 572.31 357.66 C 575.13 360.70 575.27 365.20 574.88 369.10 C 574.57 372.23 572.96 375.57 569.83 376.69 C 565.95 377.94 561.06 377.94 557.89 375.06 C 554.74 371.71 554.92 366.65 555.53 362.41 C 556.06 358.89 558.83 355.92 562.43 355.50 Z" />
  <path class="second" d=" M 23.96 358.99 C 26.59 355.12 31.81 356.46 35.75 356.23 C 35.76 360.32 35.76 364.41 35.76 368.50 C 30.85 368.50 25.94 368.48 21.03 368.53 C 21.96 365.34 22.42 361.95 23.96 358.99 Z" />
  <path class="second" d=" M 59.74 362.75 C 59.75 360.49 59.76 358.25 59.77 356.00 C 64.19 356.09 68.63 355.79 73.05 356.14 C 76.34 356.53 76.33 362.29 72.99 362.57 C 68.59 363.02 64.15 362.67 59.74 362.75 Z" />
  <path class="second" d=" M 503.50 356.25 C 507.71 356.35 512.03 355.80 516.17 356.82 C 521.57 358.04 521.36 367.66 515.90 368.59 C 511.81 369.38 507.61 368.88 503.48 368.98 C 503.50 364.74 503.50 360.49 503.50 356.25 Z" />
  <path class="second" d=" M 730.50 356.25 C 734.72 356.36 739.06 355.79 743.21 356.84 C 748.55 358.08 748.36 367.61 742.95 368.58 C 738.86 369.39 734.66 368.86 730.52 369.00 C 730.49 364.74 730.49 360.50 730.50 356.25 Z" />
  <path class="second" d=" M 785.24 356.00 C 789.79 356.10 794.36 355.76 798.91 356.17 C 801.79 357.04 801.71 362.13 798.63 362.52 C 794.19 363.07 789.70 362.64 785.24 362.75 C 785.23 360.50 785.23 358.25 785.24 356.00 Z" />
  <path class="second" d=" M 859.75 356.26 C 864.39 356.51 869.35 355.43 873.79 357.19 C 876.53 358.34 876.34 362.62 873.49 363.54 C 869.07 364.92 864.31 364.01 859.75 364.23 C 859.75 361.57 859.74 358.91 859.75 356.26 Z" />
  <path class="second" d=" M 418.70 358.66 C 421.45 355.15 426.40 356.49 430.24 356.23 C 430.25 360.32 430.25 364.41 430.24 368.50 C 425.34 368.50 420.43 368.49 415.53 368.51 C 416.55 365.23 416.88 361.63 418.70 358.66 Z" />
  <path class="second" d=" M 59.74 368.76 C 64.48 368.84 69.23 368.54 73.96 368.88 C 77.74 369.37 77.74 376.02 74.01 376.64 C 69.27 376.96 64.52 376.67 59.78 376.77 C 59.76 374.10 59.75 371.43 59.74 368.76 Z" />
  <path class="second" d=" M 785.23 368.77 C 789.84 368.81 794.47 368.59 799.08 368.83 C 803.08 368.86 803.42 375.74 799.73 376.59 C 794.92 377.02 790.07 376.65 785.25 376.75 C 785.23 374.09 785.23 371.43 785.23 368.77 Z" />
</svg>
