<?xml version="1.0" encoding="utf-8"?>
<!-- Generator: Adobe Illustrator 21.0.1, SVG Export Plug-In . SVG Version: 6.00 Build 0)  -->
<svg version="1.1" id="Слой_1" xmlns="http://www.w3.org/2000/svg" xmlns:xlink="http://www.w3.org/1999/xlink" x="0px" y="0px"
	 viewBox="0 0 1486 634" style="enable-background:new 0 0 1486 634;" xml:space="preserve">
<style type="text/css">
	.st0{display:none;fill:#191919;}
	.st1{fill:#BA1818;}
</style>
<rect class="st0" width="1486" height="634"/>
<g>
	<g>
		<g>
			<path d="M684.5,420.9h-49.3c-6.8,0-12.3,5.4-12.3,12.1v37.7c0,6.7,5.5,12.2,12.3,12.2h49.3c6.8,0,12.3-5.4,12.3-12.2v-26.1H653
				l14.6,14.5h14.6v9.3h-44.7v-33h59.3v-2.3C696.7,426.4,691.2,420.9,684.5,420.9z M764.6,433.1v23.7l-22.3,14.4L720,456.7v-23.7
				c0-6.7-5.5-12.1-12.3-12.1h-2.3v43.3l29.6,19.1v19.1h14.6v-19.1l29.6-19.1v-43.3h-2.3C770.1,420.9,764.6,426.4,764.6,433.1z
				 M850.7,420.9h-62.9v62h14.6v-47.5h16.3v47.5h14.6v-47.5h15v47.5l14.6-12.8v-37C863,426.4,857.5,420.9,850.7,420.9z M751.4,358.2
				v-81.3c0-14.5-12-26.2-26.9-26.2H616.3c-14.8,0-26.9,11.7-26.9,26.2v81.3c0,14.5,12,26.2,26.9,26.2h108.2
				C739.4,384.4,751.4,372.7,751.4,358.2z M719.4,353.2h-98v-71.3h98V353.2z M537.1,276.9V328l-49,31l-49-31v-51.1
				c0-14.5-12-26.2-26.9-26.2H180l49.3,31.2h177.7v62.2l81,51.2l81-51.2v-93.4h-5.1C549.1,250.7,537.1,262.4,537.1,276.9z
				 M261.3,353.2v-20h125.2v-31.2H229.3v82.5h206.5l-49.3-31.2H261.3z M804,353.2v-76.3c0-14.5-12-26.2-26.9-26.2H772v133.7h162
				l-49.3-31.2H804z M1306,250.7h-243.9c-14.8,0-26.9,11.7-26.9,26.2V328l-49,31l-49-31v-51.1c0-14.5-12-26.2-26.9-26.2h-5.1v93.4
				l81,51.2l81-51.2v-62.2h189.5L1306,250.7z M1119.7,353.2v-20h125.2v-31.2h-157.2v82.5h206.5l-49.3-31.2H1119.7z"/>
		</g>
	</g>
	<path class="st1" d="M524.4,317.5v-76.1c0-7.4,3.3-14.5,9-19.4L644.5,112c4.9-4.2,11.2-6.5,17.8-6.5h161.5c6.6,0,12.9,2.3,17.8,6.5
		l111.1,109.9c5.7,4.9,9,12,9,19.4v76.1l18.9,11.9v-96.3c0-7.4-3.3-14.5-9-19.4l-122.9-120c-4.9-4.2-11.2-6.5-17.8-6.5H655.1
		c-6.6,0-12.9,2.3-17.8,6.5l-122.9,120c-5.7,4.9-9,12-9,19.4v96.2L524.4,317.5z"/>
	<path class="st1" d="M964.1,401.9L841.5,522c-4.9,4.2-11.2,6.5-17.8,6.5H662.3c-6.6,0-12.9-2.3-17.8-6.5L521.9,401.9l-16.5,10.3
		l131.9,128.1c4.9,4.2,11.2,6.5,17.8,6.5h175.8c6.6,0,12.9-2.3,17.8-6.5l131.9-128.1L964.1,401.9z"/>
</g>
</svg>
