<?xml version="1.0" encoding="utf-8"?>
<!-- Generator: Adobe Illustrator 21.0.1, SVG Export Plug-In . SVG Version: 6.00 Build 0)  -->
<svg version="1.1" id="industrials-1_xA0_Изображение_1_"
	 xmlns="http://www.w3.org/2000/svg" xmlns:xlink="http://www.w3.org/1999/xlink" x="0px" y="0px" viewBox="0 0 393.1 126"
	 style="enable-background:new 0 0 393.1 126;" xml:space="preserve">
<style type="text/css">
	.st0{fill:#fdfbfb;}
</style>
<g>
	<path class="st0" d="M393.3,126.2c-131,0-262,0-393.1,0c0-42,0-84,0-126c131,0,262.1,0,393.1,0C393.3,42.2,393.3,84.2,393.3,126.2z
		 M367.8,39.5c-0.2,0-0.4-0.1-0.5-0.1c-7.2,0-14.5,0-21.7,0c-0.5,0-1,0.3-1.4,0.6c-2.6,2.2-5.2,4.5-7.7,6.8
		c-0.5,0.4-0.8,1.2-0.8,1.8c-0.1,7,0,14-0.1,21c0,1.1,0.3,1.4,1.4,1.4c5.5,0,11,0,16.6-0.1c1.2,0,1.5,0.4,1.5,1.6c-0.1,8,0,16,0,24
		c0,1.8,0,1.9-1.9,1.9c-17.6,0-35.1,0-52.7,0c-19.4,0-38.9,0-58.3,0c-36.3,0-72.6,0-108.9,0c-29.7,0-59.4,0-89,0
		c-1,0-1.7,0.3-2.5,0.9c-2.5,2.4-5.1,4.7-7.7,7c-1.8,1.6-3.6,3.3-5.7,5.1c0.8,0,1.2,0,1.7,0c61.1,0,122.2,0,183.3,0
		c48.1,0,96.2,0,144.3,0c0.9,0,1.6-0.2,2.3-0.8c2.3-2.1,4.6-4.1,7-6.1c0.7-0.6,1-1.2,1-2.2c0-13,0-26,0-39c0-0.4,0-0.8,0-1.3
		c-6.4,0-12.7,0-19.1,0c0-4.3,0-8.5,0-12.7c0-0.2,0.6-0.6,0.9-0.7c1.5-0.1,3,0,4.4-0.1c0.8,0,0.9,0.4,0.9,1c0,1.8,0,3.5,0,5.3
		c0,0.9,0.3,1.3,1.2,1.3c2.6-0.1,5.3,0,7.9,0c1.2,0,2.4,0,3.6,0C367.8,50.4,367.8,45,367.8,39.5z M368.2,20.9
		c-0.1-0.1-0.1-0.2-0.2-0.2c-113.2,0-226.3,0-339.5,0c0,4.7,0,9.2,0,13.8c0.7,0,1.2,0,1.8,0c48.2,0,96.5,0,144.7,0
		c59,0,117.9,0,176.9,0c0.6,0,1.4-0.3,1.9-0.7c3.3-2.9,6.5-5.8,9.7-8.7C365.1,23.7,366.7,22.3,368.2,20.9z M83,38.6
		c0,18.5,0,36.8,0,55.2c0.2,0,0.4,0,0.5,0c7.4,0,14.9,0,22.3,0c0.5,0,1.1-0.3,1.5-0.6c2.4-2.1,4.7-4.3,7-6.3c0.8-0.7,1-1.4,1-2.4
		c0-6,0-12.1,0-18.1c0-6.4,0-12.9-0.1-19.3c0-0.5-0.2-1-0.5-1.3c-2.5-2.2-5.1-4.4-7.6-6.6c-0.4-0.3-0.9-0.5-1.4-0.5
		c-2.3-0.1-4.6,0-7,0C93.6,38.6,88.4,38.6,83,38.6z M310.8,93.4c0-0.5,0.1-0.8,0.1-1.2c0-14.6,0-29.1,0-43.7c0-0.6-0.3-1.3-0.8-1.7
		c-2.6-2.3-5.3-4.6-7.9-6.9c-0.4-0.3-0.9-0.5-1.4-0.5c-7,0-14.1,0-21.1,0c-1.1,0-1.3,0.3-1.3,1.4c0,17.1,0,34.2,0,51.3
		c0,1.1,0.2,1.5,1.4,1.4c3.5-0.1,7,0,10.4,0c0.4,0,0.8-0.1,1.4-0.1c0-5.6,0-11,0-16.6c2.1,0,4.1,0,6.3,0c0,5.6,0,11.1,0,16.6
		C302.2,93.4,306.4,93.4,310.8,93.4z M59.4,93.8c0-0.6,0-1.1,0-1.6c0-14.1,0-28.2,0-42.4c0-1.3,0.4-1.6,1.6-1.5c0.9,0.1,1.8,0,2.6,0
		c1.6,0,1.6,0,1.6,1.5c0,14.1,0,28.2,0,42.4c0,0.5,0,0.9,0,1.4c4.5,0,8.8,0,13.2,0c0-0.6,0-1,0-1.5c0-7.3,0-14.6,0-21.8
		c0-7.8,0-15.5-0.1-23.3c0-0.5-0.3-1.2-0.7-1.6c-2.3-2.1-4.7-4.2-7.2-6.2c-0.5-0.4-1.3-0.7-1.9-0.7c-7.1,0-14.2,0-21.2,0
		c-0.4,0-0.8,0-1.3,0c0,0.4,0,0.7,0,1c0,17.6,0,35.2,0,52.8c0,0.2-0.1,0.5,0,0.6c0.3,0.3,0.6,0.8,0.9,0.8
		C51,93.9,55.2,93.8,59.4,93.8z M223.8,93.4c0.5,0,0.9,0.1,1.3,0.1c3.3,0,6.6,0,10,0c1.9,0,1.9,0,1.9-1.9c0-6.4,0-12.9,0-19.3
		c0-1.1,0.3-1.4,1.4-1.4c1.2,0.1,2.4,0.1,3.6,0c1.1-0.1,1.4,0.4,1.4,1.4c0,6.5,0,13,0,19.6c0,0.5,0,1,0,1.6c0.6,0,1,0,1.4,0
		c3.4,0,6.8,0,10.2,0c1.1,0,1.5-0.3,1.5-1.4c-0.1-6.1-0.2-12.2,0-18.2c0.1-2.8-0.4-5-2.9-6.4c-0.2-0.1-0.3-0.3-0.4-0.4
		c-0.6-0.4-0.4-0.8,0-1.1c0.8-0.7,1.7-1.3,2.4-2.1c0.4-0.4,0.8-1,0.8-1.6c0.1-7.2,0-14.5,0.1-21.7c0-0.8-0.3-1.1-1.1-1.1
		c-7.1,0-14.2,0-21.2,0c-0.5,0-1.1,0.2-1.5,0.6c-2.6,2.2-5.1,4.4-7.7,6.6c-0.7,0.6-0.9,1.1-0.9,2c0,14.5,0,29,0,43.6
		C223.8,92.5,223.8,92.9,223.8,93.4z M131.1,84.4c0-15.1,0-30,0-45c-3.9,0-7.6,0-11.3,0c-1.7,0-1.7,0-1.7,1.8c0,13.9,0,27.8,0,41.6
		c0,3.1,0,6.2,0,9.4c0,1,0.3,1.3,1.3,1.3c7,0,14.1,0,21.1,0c0.5,0,1.1-0.1,1.4-0.4c2.7-2.3,5.4-4.6,8-7c0.4-0.4,0.7-1.1,0.7-1.6
		c0-14.6,0-29.2,0-43.8c0-1-0.2-1.3-1.3-1.3c-3.4,0.1-6.9,0-10.3,0c-1.6,0-1.6,0-1.6,1.5c0,14,0,27.9,0,41.9c0,0.5-0.1,1.1-0.1,1.6
		C135.3,84.4,133.3,84.4,131.1,84.4z M168.2,61.9c0-4.4,0-8.6,0-12.7c0-0.2,0.6-0.7,1-0.7c1.4-0.1,2.8,0,4.2,0
		c0.9,0,1.2,0.3,1.2,1.2c0,1.7,0,3.4,0,5c0,0.9,0.3,1.4,1.3,1.4c3.5,0,7,0,10.4,0c1,0,1.3-0.3,1.3-1.3c0-4.6,0-9.2,0-13.8
		c0-1.5,0-1.5-1.6-1.5c-6.9,0-13.8,0-20.6,0c-0.5,0-1.2,0.2-1.6,0.6c-2.6,2.2-5.2,4.5-7.8,6.7c-0.7,0.5-0.9,1.1-0.9,2
		c0,6.9,0,13.8,0,20.8c0,1.1,0.3,1.5,1.5,1.5c5.6-0.1,11.1,0,16.7-0.1c1,0,1.4,0.2,1.4,1.3c-0.1,3.6,0,7.3,0,10.9
		c0,0.4-0.1,0.8-0.1,1.2c-2.1,0-4.1,0-6.2,0c0-2.5,0-4.9,0-7.3c-0.2-0.1-0.4-0.2-0.5-0.2c-3.9,0-7.8,0-11.8,0
		c-0.9,0-0.9,0.5-0.9,1.2c0,4.8,0,9.5,0,14.3c0,0.9,0.3,1.1,1.1,1.1c7.2,0,14.3,0,21.5,0c0.5,0,1.1-0.2,1.5-0.6
		c2.6-2.2,5.2-4.4,7.7-6.7c0.4-0.4,0.7-1.1,0.7-1.7c0-7.1,0-14.2,0-21.2c0-0.4,0-0.8-0.1-1.2C181.1,61.9,174.7,61.9,168.2,61.9z
		 M335.6,84.4c-2,0-3.8,0-5.5,0c-1.6,0-1.6,0-1.6-1.6c0-14,0-28,0-42c0-1.2-0.3-1.5-1.5-1.5c-3.4,0.1-6.9,0.1-10.3,0
		c-1.1,0-1.4,0.4-1.4,1.5c0,17.2,0,34.3,0,51.5c0,1,0.3,1.2,1.2,1.2c10.3,0,20.6,0,31,0c0.9,0,1.3-0.3,1.3-1.2c0-4.7,0-9.4,0-14
		c0-1.1-0.4-1.4-1.4-1.3c-3.4,0-6.8,0.1-10.2,0c-1.2,0-1.6,0.3-1.6,1.5C335.7,80.4,335.6,82.3,335.6,84.4z M222.7,39.4
		c-10.9,0-21.5,0-32.3,0c0,2.8,0,5.6,0,8.3c0,0.2,0.6,0.6,1,0.6c2.2,0.1,4.3,0,6.5,0c0.7,0,1.4,0,2.2,0c0,15.1,0,30,0,45
		c3.9,0,7.7,0,11.4,0c1.6,0,1.6,0,1.6-1.6c0-13.8,0-27.7,0-41.5c0-1.9,0-1.9,1.8-1.9c2.2,0,4.5,0,6.7,0c0.3,0,1-0.4,1-0.7
		C222.7,45,222.7,42.3,222.7,39.4z M28.6,39.4c0,18.2,0,36.3,0,54.4c4.4,0,8.7,0,13.1,0c0-18.1,0-36.2,0-54.4
		C37.2,39.4,32.9,39.4,28.6,39.4z M260.9,93.4c0.4,0,0.8,0.1,1.2,0.1c3.5,0,7,0,10.4,0c1.1,0,1.4-0.4,1.4-1.4c0-6.4,0-12.9,0-19.3
		c0-10.6,0-21.3,0-31.9c0-1.2-0.4-1.5-1.5-1.5c-2.2,0.1-4.4,0-6.6,0c-1.6,0-3.3,0-5,0C260.9,57.4,260.9,75.4,260.9,93.4z"/>
	<path d="M393.3,126.2c0-42,0-84,0-126c0.1,0.3,0.2,0.6,0.2,0.8c0,4.1,0,8.2,0,12.4c0,37.2,0,74.5,0,111.7
		C393.5,125.5,393.4,125.9,393.3,126.2z"/>
	<path d="M367.8,39.5c0,5.5,0,11,0,16.5c-1.3,0-2.4,0-3.6,0c-2.6,0-5.3,0-7.9,0c-1,0-1.3-0.3-1.2-1.3c0.1-1.8,0-3.5,0-5.3
		c0-0.7-0.2-1.1-0.9-1c-1.5,0-3,0-4.4,0.1c-0.3,0-0.9,0.4-0.9,0.7c-0.1,4.2,0,8.4,0,12.7c6.4,0,12.7,0,19.1,0c0,0.5,0,0.9,0,1.3
		c0,13,0,26,0,39c0,1-0.3,1.6-1,2.2c-2.4,2-4.7,4-7,6.1c-0.7,0.6-1.4,0.8-2.3,0.8c-48.1,0-96.2,0-144.3,0c-61.1,0-122.2,0-183.3,0
		c-0.4,0-0.9,0-1.7,0c2.1-1.9,3.9-3.5,5.7-5.1c2.6-2.3,5.2-4.7,7.7-7c0.7-0.7,1.5-0.9,2.5-0.9c29.7,0,59.4,0,89,0
		c36.3,0,72.6,0,108.9,0c19.4,0,38.9,0,58.3,0c17.6,0,35.1,0,52.7,0c1.9,0,1.9,0,1.9-1.9c0-8,0-16,0-24c0-1.2-0.3-1.6-1.5-1.6
		c-5.5,0.1-11,0-16.6,0.1c-1.1,0-1.4-0.3-1.4-1.4c0-7,0-14,0.1-21c0-0.6,0.4-1.4,0.8-1.8c2.5-2.3,5.1-4.5,7.7-6.8
		c0.4-0.3,0.9-0.6,1.4-0.6c7.2,0,14.5,0,21.7,0C367.4,39.4,367.5,39.4,367.8,39.5z"/>
	<path d="M368.2,20.9c-1.6,1.4-3.1,2.8-4.7,4.2c-3.2,2.9-6.5,5.8-9.7,8.7c-0.5,0.4-1.3,0.7-1.9,0.7c-59,0-117.9,0-176.9,0
		c-48.2,0-96.5,0-144.7,0c-0.6,0-1.1,0-1.8,0c0-4.6,0-9.2,0-13.8c113.1,0,226.3,0,339.5,0C368.1,20.8,368.2,20.9,368.2,20.9z"/>
	<path d="M83,38.6c5.3,0,10.6,0,15.8,0c2.3,0,4.6,0,7,0c0.5,0,1,0.2,1.4,0.5c2.6,2.2,5.1,4.3,7.6,6.6c0.3,0.3,0.5,0.9,0.5,1.3
		c0,6.4,0.1,12.9,0.1,19.3c0,6,0,12.1,0,18.1c0,1-0.2,1.7-1,2.4c-2.4,2.1-4.7,4.2-7,6.3c-0.4,0.3-1,0.6-1.5,0.6
		c-7.4,0-14.9,0-22.3,0c-0.2,0-0.3,0-0.5,0C83,75.4,83,57.1,83,38.6z M102.2,84.4c0-2.6,0-5.1,0-7.6c0-9,0-18.1,0-27.1
		c0-1-0.3-1.4-1.3-1.3c-1.1,0.1-2.2,0.1-3.2,0s-1.3,0.2-1.3,1.3c0,11.2,0,22.4,0,33.6c0,0.4,0,0.8,0.1,1.1
		C98.4,84.4,100.2,84.4,102.2,84.4z"/>
	<path d="M310.8,93.4c-4.4,0-8.6,0-13,0c0-5.6,0-11.1,0-16.6c-2.1,0-4.1,0-6.3,0c0,5.6,0,11,0,16.6c-0.5,0-0.9,0.1-1.4,0.1
		c-3.5,0-7,0-10.4,0c-1.1,0-1.4-0.4-1.4-1.4c0-17.1,0-34.2,0-51.3c0-1,0.3-1.4,1.3-1.4c7,0,14.1,0,21.1,0c0.5,0,1,0.2,1.4,0.5
		c2.7,2.3,5.3,4.5,7.9,6.9c0.4,0.4,0.8,1.1,0.8,1.7c0,14.6,0,29.1,0,43.7C310.9,92.5,310.8,92.9,310.8,93.4z M297.8,58L297.8,58
		c0-2.8,0-5.6,0-8.4c0-0.6,0-1.1-0.8-1.1c-1.5,0-3,0-4.6,0c-0.7,0-0.9,0.3-0.9,1c0,5.7,0,11.4,0,17c0,0.8,0.3,1.1,1.1,1
		c1.4,0,2.8,0,4.2,0c0.8,0,1-0.3,1-1.1C297.7,63.6,297.8,60.8,297.8,58z"/>
	<path d="M59.4,93.8c-4.3,0-8.4,0-12.5,0c-0.3,0-0.6-0.5-0.9-0.8c-0.1-0.1,0-0.4,0-0.6c0-17.6,0-35.2,0-52.8c0-0.3,0-0.5,0-1
		c0.5,0,0.9,0,1.3,0c7.1,0,14.2,0,21.2,0c0.6,0,1.4,0.3,1.9,0.7c2.4,2,4.8,4.1,7.2,6.2c0.4,0.4,0.7,1,0.7,1.6
		c0.1,7.8,0.1,15.5,0.1,23.3c0,7.3,0,14.6,0,21.8c0,0.5,0,0.9,0,1.5c-4.4,0-8.8,0-13.2,0c0-0.5,0-1,0-1.4c0-14.1,0-28.2,0-42.4
		c0-1.5,0-1.5-1.6-1.5c-0.9,0-1.8,0.1-2.6,0c-1.1-0.1-1.6,0.2-1.6,1.5c0.1,14.1,0,28.2,0,42.4C59.4,92.7,59.4,93.2,59.4,93.8z"/>
	<path d="M223.8,93.4c0-0.5,0-0.9,0-1.2c0-14.5,0-29,0-43.6c0-0.9,0.3-1.4,0.9-2c2.6-2.2,5.1-4.4,7.7-6.6c0.4-0.3,1-0.6,1.5-0.6
		c7.1,0,14.2,0,21.2,0c0.8,0,1.1,0.3,1.1,1.1c0,7.2,0,14.5-0.1,21.7c0,0.5-0.4,1.2-0.8,1.6c-0.7,0.8-1.6,1.4-2.4,2.1
		c-0.4,0.4-0.6,0.7,0,1.1c0.2,0.1,0.3,0.3,0.4,0.4c2.6,1.4,3,3.6,2.9,6.4c-0.2,6.1-0.1,12.2,0,18.2c0,1.2-0.4,1.5-1.5,1.4
		c-3.4-0.1-6.8,0-10.2,0c-0.4,0-0.8,0-1.4,0c0-0.6,0-1.1,0-1.6c0-6.5,0-13,0-19.6c0-1-0.3-1.5-1.4-1.4c-1.2,0.1-2.4,0.1-3.6,0
		c-1.1-0.1-1.4,0.3-1.4,1.4c0,6.4,0,12.9,0,19.3c0,1.9,0,1.9-1.9,1.9c-3.3,0-6.6,0-10,0C224.7,93.4,224.3,93.4,223.8,93.4z
		 M243.2,61.8c0-4.3,0-8.4,0-12.6c0-0.3-0.6-0.7-0.9-0.7c-1.3-0.1-2.6,0-4-0.1c-1-0.1-1.4,0.3-1.4,1.3c0.1,3.1,0,6.2,0,9.4
		c0,0.9,0,1.7,0,2.7C239.1,61.8,241.1,61.8,243.2,61.8z"/>
	<path d="M131.1,84.4c2.2,0,4.1,0,6.2,0c0-0.5,0.1-1.1,0.1-1.6c0-14,0-27.9,0-41.9c0-1.5,0-1.5,1.6-1.5c3.4,0,6.9,0,10.3,0
		c1,0,1.3,0.3,1.3,1.3c0,14.6,0,29.2,0,43.8c0,0.5-0.3,1.3-0.7,1.6c-2.6,2.4-5.3,4.7-8,7c-0.3,0.3-0.9,0.4-1.4,0.4
		c-7,0-14.1,0-21.1,0c-1,0-1.3-0.3-1.3-1.3c0.1-3.1,0-6.2,0-9.4c0-13.9,0-27.8,0-41.6c0-1.8,0-1.8,1.7-1.8c3.7,0,7.4,0,11.3,0
		C131.1,54.4,131.1,69.3,131.1,84.4z"/>
	<path d="M168.2,61.9c6.5,0,12.9,0,19.3,0c0,0.5,0.1,0.9,0.1,1.2c0,7.1,0,14.2,0,21.2c0,0.6-0.3,1.3-0.7,1.7
		c-2.5,2.3-5.1,4.5-7.7,6.7c-0.4,0.3-1,0.6-1.5,0.6c-7.2,0-14.3,0-21.5,0c-0.8,0-1.1-0.2-1.1-1.1c0-4.8,0-9.5,0-14.3
		c0-0.7,0.1-1.2,0.9-1.2c3.9,0,7.8,0,11.8,0c0.1,0,0.2,0.1,0.5,0.2c0,2.4,0,4.8,0,7.3c2.1,0,4.1,0,6.2,0c0-0.4,0.1-0.8,0.1-1.2
		c0-3.6,0-7.3,0-10.9c0-1.1-0.4-1.3-1.4-1.3c-5.6,0-11.1,0-16.7,0.1c-1.2,0-1.5-0.4-1.5-1.5c0-6.9,0-13.8,0-20.8
		c0-0.8,0.2-1.4,0.9-2c2.6-2.2,5.2-4.5,7.8-6.7c0.4-0.3,1.1-0.6,1.6-0.6c6.9,0,13.8,0,20.6,0c1.6,0,1.6,0,1.6,1.5
		c0,4.6,0,9.2,0,13.8c0,1-0.3,1.3-1.3,1.3c-3.5,0-7,0-10.4,0c-1,0-1.3-0.4-1.3-1.4c0-1.7,0-3.4,0-5c0-0.9-0.3-1.2-1.2-1.2
		c-1.4,0.1-2.8,0-4.2,0c-0.3,0-1,0.4-1,0.7C168.2,53.4,168.2,57.6,168.2,61.9z"/>
	<path d="M335.6,84.4c0-2.1,0.1-4.1,0-6c-0.1-1.2,0.4-1.6,1.6-1.5c3.4,0.1,6.8,0,10.2,0c1,0,1.4,0.2,1.4,1.3c-0.1,4.7,0,9.4,0,14
		c0,1-0.3,1.2-1.3,1.2c-10.3,0-20.6,0-31,0c-0.9,0-1.2-0.2-1.2-1.2c0-17.2,0-34.3,0-51.5c0-1.1,0.3-1.5,1.4-1.5
		c3.4,0.1,6.9,0.1,10.3,0c1.1,0,1.5,0.3,1.5,1.5c0,14,0,28,0,42c0,1.6,0,1.6,1.6,1.6C331.8,84.4,333.6,84.4,335.6,84.4z"/>
	<path d="M222.7,39.4c0,2.8,0,5.6,0,8.3c0,0.2-0.6,0.6-1,0.7c-2.2,0.1-4.5,0.1-6.7,0c-1.8,0-1.8,0-1.8,1.9c0,13.8,0,27.7,0,41.5
		c0,1.6,0,1.6-1.6,1.6c-3.8,0-7.5,0-11.4,0c0-15,0-29.8,0-45c-0.8,0-1.5,0-2.2,0c-2.2,0-4.3,0-6.5,0c-0.4,0-1-0.4-1-0.6
		c-0.1-2.7,0-5.5,0-8.3C201.2,39.4,211.8,39.4,222.7,39.4z"/>
	<path d="M28.6,39.4c4.4,0,8.7,0,13.1,0c0,18.2,0,36.2,0,54.4c-4.4,0-8.7,0-13.1,0C28.6,75.7,28.6,57.6,28.6,39.4z"/>
	<path d="M260.9,93.4c0-18,0-35.9,0-54c1.7,0,3.3,0,5,0c2.2,0,4.4,0.1,6.6,0c1.1,0,1.5,0.3,1.5,1.5c0,10.6,0,21.3,0,31.9
		c0,6.4,0,12.9,0,19.3c0,1.1-0.3,1.5-1.4,1.4c-3.5-0.1-7,0-10.4,0C261.7,93.4,261.3,93.4,260.9,93.4z"/>
	<path class="st0" d="M102.2,84.4c-2,0-3.7,0-5.7,0c0-0.4-0.1-0.7-0.1-1.1c0-11.2,0-22.4,0-33.6c0-1,0.3-1.3,1.3-1.3
		c1.1,0.1,2.2,0.1,3.2,0s1.3,0.3,1.3,1.3c0,9,0,18.1,0,27.1C102.2,79.3,102.2,81.8,102.2,84.4z"/>
	<path class="st0" d="M297.8,58c0,2.8,0,5.7,0,8.5c0,0.8-0.2,1.1-1,1.1c-1.4,0-2.8,0-4.2,0c-0.8,0-1.1-0.2-1.1-1c0-5.7,0-11.4,0-17
		c0-0.6,0.2-1,0.9-1c1.5,0,3,0,4.6,0c0.8,0,0.8,0.5,0.8,1.1C297.8,52.4,297.8,55.2,297.8,58L297.8,58z"/>
	<path class="st0" d="M243.2,61.8c-2.2,0-4.2,0-6.3,0c0-0.9,0-1.8,0-2.7c0-3.1,0-6.2,0-9.4c0-1.1,0.4-1.4,1.4-1.3
		c1.3,0.1,2.6,0,4,0.1c0.3,0,0.9,0.5,0.9,0.7C243.3,53.4,243.2,57.5,243.2,61.8z"/>
</g>
</svg>
