<svg version="1.1" id="Слой_1" xmlns="http://www.w3.org/2000/svg" xmlns:xlink="http://www.w3.org/1999/xlink" x="0px" y="0px"
	 viewBox="0 0 300 200" style="enable-background:new 0 0 300 200;" xml:space="preserve">
<style type="text/css">
	.st0{fill:#FFFFFF;}
	.st1{fill:#4D59A0;}
	.st2{fill:#201600;}
</style>
<g>
	<g>
		<path class="st0" d="M88.5,127.5l13.3-1.9l-0.1,1.2c-0.1,2.1-0.3,4.6-0.5,7.4l0,0.5l3-9.5l13.5-1.9l-7.6,37.5l-9.8,1.4l1.6-7.9
			l-2.6,8.1l-7.3,1l0.6-9.1l-1.9,9.3l-9.8,1.4L88.5,127.5z"/>
		<path class="st1" d="M116.3,124.6l-7.2,35.4l-7.7,1.1l4.9-23.9l-7.9,24.3l-5.4,0.8l1.5-22.9l-4.8,23.4l-7.7,1.1l7.2-35.4l11.3-1.6
			c-0.1,2.1-0.3,4.5-0.5,7.4l-0.6,8.8l5.4-16.8L116.3,124.6 M118.9,122.2l-2.8,0.4l-11.4,1.6l-1.3,0.2l-0.4,1.2l-0.3,1.1l0.1-2.2
			l-2.4,0.3L89,126.4l-1.4,0.2l-0.3,1.4l-7.2,35.4l-0.6,2.8l2.8-0.4l7.7-1.1l1.4-0.2l0,0l1.8-0.3l5.4-0.8l0.2,0v0l0.9-0.1l0.2,0
			l1.8-0.3l7.7-1.1l1.4-0.2l0.3-1.4l7.2-35.4L118.9,122.2L118.9,122.2z"/>
	</g>
	<g>
		<path class="st0" d="M119,123.2l13.3-1.9l-0.1,1.2c-0.1,2.1-0.3,4.6-0.5,7.4l0,0.5l3-9.5l13.5-1.9l-7.6,37.5l-9.8,1.4l1.6-7.9
			l-2.6,8.1l-7.3,1l0.6-9.1l-1.9,9.3l-9.8,1.4L119,123.2z"/>
		<path class="st1" d="M146.9,120.2l-7.2,35.4l-7.7,1.1l4.9-23.9l-7.9,24.3l-5.4,0.8l1.5-22.9l-4.8,23.4l-7.7,1.1l7.2-35.4l11.3-1.6
			c-0.1,2.1-0.3,4.5-0.5,7.4l-0.6,8.8l5.4-16.8L146.9,120.2 M149.5,117.8l-2.8,0.4l-11.4,1.6L134,120l-0.4,1.2l-0.3,1.1l0.1-2.2
			l-2.4,0.3l-11.3,1.6l-1.4,0.2l-0.3,1.4l-7.2,35.4l-0.6,2.8l2.8-0.4l7.7-1.1l1.4-0.2l0,0l1.8-0.3l5.4-0.8l0.2,0v0l0.5-0.1l0.6-0.1
			v0l1.8-0.3l7.7-1.1l1.4-0.2l0.3-1.4l7.2-35.4L149.5,117.8L149.5,117.8z"/>
	</g>
	<g>
		<path class="st0" d="M152.2,118.5l14.5-2.1l-2.3,36.8l-11.1,1.6l0.8-6.3l-1.2,0.2l-1.8,6.4l-11.3,1.6L152.2,118.5z M155.7,136.8
			c-0.4,1.3-0.7,2.5-1,3.5l0.7-0.1C155.5,139.1,155.6,137.9,155.7,136.8z"/>
		<path class="st1" d="M165.6,117.6l-2.2,34.7l-9,1.3l0.8-6.3l-3.1,0.4l-1.8,6.4l-9.1,1.3l11.7-36L165.6,117.6 M158,126.3
			c-2.3,6.9-3.8,11.9-4.7,15.1l3-0.4C156.7,137.1,157.2,132.2,158,126.3 M167.8,115.2l-2.5,0.3l-12.7,1.8l-1.3,0.2l-0.4,1.2
			l-11.7,36l-1,3.1l3.2-0.5l9.1-1.3l1.3-0.2l0.3-1.2l-0.2,1.2l2.6-0.4l9-1.3l1.6-0.2l0.1-1.6l2.2-34.7L167.8,115.2L167.8,115.2z"/>
	</g>
</g>
<g>
	<path class="st1" d="M137.9,112.1l-2.3,0.3l0.3-1.6c0.1-0.5,0.1-0.7,0.1-0.9c0-0.1-0.1-0.1-0.3-0.1c-0.2,0-0.3,0.1-0.4,0.3
		c-0.1,0.1-0.2,0.5-0.3,0.9l-0.9,4.2c-0.1,0.4-0.1,0.7-0.1,0.9c0,0.1,0.1,0.2,0.3,0.2c0.2,0,0.3-0.1,0.4-0.3c0.1-0.1,0.2-0.5,0.3-1
		l0.2-1.1l2.3-0.3l-0.1,0.4c-0.2,0.9-0.4,1.6-0.6,2c-0.2,0.4-0.6,0.8-1,1.2c-0.5,0.4-1.1,0.6-1.7,0.7c-0.7,0.1-1.2,0-1.6-0.1
		c-0.4-0.2-0.6-0.5-0.6-0.9c0-0.4,0-1.1,0.2-2l0.5-2.7c0.1-0.7,0.3-1.2,0.4-1.5c0.1-0.3,0.3-0.7,0.6-1c0.3-0.3,0.6-0.6,1-0.8
		c0.4-0.2,0.9-0.4,1.4-0.4c0.7-0.1,1.2,0,1.6,0.2c0.4,0.2,0.6,0.5,0.6,0.9c0.1,0.4,0,1-0.2,1.9L137.9,112.1z"/>
	<path class="st1" d="M144.1,107.3l-0.4,1.8l-1.3,0.2l-1.5,7.3l-2.3,0.3l1.5-7.3l-1.3,0.2l0.4-1.8L144.1,107.3z"/>
	<path class="st1" d="M149,106.6l-1.8,6.1c-0.3,1-0.5,1.7-0.7,2.1c-0.2,0.4-0.5,0.7-0.8,0.9c-0.4,0.2-0.9,0.4-1.6,0.5l-1.3,0.2
		l0.2-1.2l0.1,0c0.3,0,0.5-0.1,0.6-0.2c0.1-0.1,0.1-0.1,0.2-0.2c0,0,0-0.3,0-0.8l0.2-6.7l2-0.3l-0.4,5.6l1.5-5.7L149,106.6z"/>
	<path class="st1" d="M153.8,116.3l-1.6,0.2l0.3-1.6l-3.6,0.5l-0.3,1.6l-1.6,0.2l0.7-3.5l0.5-0.1c0.4-0.8,0.8-1.8,1.2-3
		c0.4-1.2,0.7-2.6,1-4l0.1-0.3l5-0.7l-1.5,7.2l0.5-0.1L153.8,116.3z M151.8,113.2l1.1-5.4l-0.7,0.1l0,0.1c-0.4,1.7-0.9,3.6-1.6,5.4
		L151.8,113.2z"/>
	<path class="st1" d="M156.6,105.5l3.8-0.5l-0.4,1.8l-1.5,0.2l-0.3,1.7l1.4-0.2l-0.3,1.7l-1.4,0.2l-0.4,2l1.7-0.2l-0.4,1.8l-3.9,0.6
		L156.6,105.5z"/>
	<path class="st1" d="M166.4,104.1l-1.8,9.1l-2.3,0.3l0.8-3.8l-0.7,0.1l-0.8,3.8l-2.3,0.3l1.8-9.1l2.3-0.3l-0.7,3.3l0.7-0.1l0.7-3.3
		L166.4,104.1z"/>
	<path class="st1" d="M169.2,109.2c-0.2,0.2-0.5,0.4-0.8,0.6c-0.3,0.2-0.6,0.3-0.9,0.3c-0.5,0.1-0.9,0-1.1-0.3
		c-0.2-0.3-0.2-0.8-0.1-1.4l0.9-4.4l2.3-0.3l-0.8,4.1c-0.1,0.4-0.1,0.6-0.1,0.7c0,0.1,0.1,0.2,0.3,0.2c0.3,0,0.6-0.4,0.7-1l0.8-4.1
		l2.3-0.3l-1.8,9.1l-2.3,0.3L169.2,109.2z"/>
	<path class="st1" d="M173.5,103.1l3.8-0.5l-0.4,1.8l-1.5,0.2l-0.3,1.7l1.4-0.2l-0.3,1.7l-1.4,0.2l-0.4,2l1.7-0.2l-0.4,1.8l-3.9,0.6
		L173.5,103.1z"/>
	<path class="st1" d="M182.6,105.6l-2.3,0.3l0.3-1.6c0.1-0.5,0.1-0.7,0.1-0.9c0-0.1-0.1-0.1-0.3-0.1c-0.2,0-0.3,0.1-0.4,0.3
		c-0.1,0.1-0.2,0.5-0.3,0.9l-0.9,4.2c-0.1,0.4-0.1,0.7-0.1,0.9c0,0.1,0.1,0.2,0.3,0.2c0.2,0,0.3-0.1,0.4-0.3c0.1-0.1,0.2-0.5,0.3-1
		l0.2-1.1l2.3-0.3l-0.1,0.4c-0.2,0.9-0.4,1.6-0.6,2c-0.2,0.4-0.6,0.8-1,1.2c-0.5,0.4-1.1,0.6-1.7,0.7c-0.7,0.1-1.2,0-1.6-0.1
		c-0.4-0.2-0.6-0.5-0.6-0.9c0-0.4,0-1.1,0.2-2l0.5-2.7c0.1-0.7,0.3-1.2,0.4-1.5c0.1-0.3,0.3-0.7,0.6-1c0.3-0.3,0.6-0.6,1-0.8
		c0.4-0.2,0.9-0.4,1.4-0.4c0.7-0.1,1.2,0,1.6,0.2c0.4,0.2,0.6,0.5,0.6,0.9c0.1,0.4,0,1-0.2,1.9L182.6,105.6z"/>
	<path class="st1" d="M184.2,101.6l2.3-0.3l-0.8,3.9c0.4-0.1,0.7-0.4,0.8-0.8l0.4-1.8c0.1-0.7,0.4-1.1,0.6-1.4l2.1-0.3
		c-0.2,0.3-0.4,0.7-0.6,1.4l-0.3,1.6c-0.2,0.9-0.8,1.6-1.8,1.8c1,0,1.4,0.5,1.2,1.4l-0.3,1.5c-0.1,0.7-0.1,1.2,0,1.4l-2.1,0.3
		c-0.2-0.2-0.2-0.6-0.1-1.3l0.4-1.8c0-0.2,0-0.4-0.1-0.5c-0.1-0.1-0.3-0.2-0.5-0.1l-0.8,3.9l-2.3,0.3L184.2,101.6z"/>
	<path class="st1" d="M193.9,100.2l-0.5,8.9l-2.3,0.3l0.2-1.6l-0.8,0.1l-0.5,1.7l-2.3,0.3l3-9.3L193.9,100.2z M191.6,106.2
		c0.1-1,0.2-2.3,0.4-3.8c-0.6,1.8-1,3.1-1.2,3.9L191.6,106.2z"/>
	<path class="st1" d="M198.8,108.3l-2.3,0.3l0.8-4.1c-0.3,0-0.5,0.1-0.6,0.2c-0.1,0.1-0.2,0.3-0.3,0.7l-0.7,3.3l-2.1,0.3l0.5-2.7
		c0.1-0.5,0.2-0.8,0.3-1.1c0.1-0.2,0.2-0.5,0.5-0.6c0.2-0.2,0.5-0.4,0.9-0.5c-0.5,0-0.8-0.1-0.9-0.3c-0.1-0.2-0.1-0.7,0.1-1.4
		c0.1-0.6,0.3-1.1,0.5-1.5c0.2-0.4,0.5-0.6,0.8-0.8c0.3-0.2,0.6-0.3,1-0.4c0.4-0.1,0.9-0.2,1.7-0.3l1.6-0.2L198.8,108.3z
		 M197.7,103.1l0.4-2l-0.1,0c-0.2,0-0.3,0.1-0.5,0.2c-0.1,0.1-0.2,0.3-0.3,0.6l-0.1,0.5c-0.1,0.3-0.1,0.6,0,0.6
		C197.2,103.1,197.4,103.1,197.7,103.1z"/>
	<path class="st1" d="M176.1,124.3l-3,0.4l1.9-9.7l-0.9,0.1l-1.4,6.8c-0.2,0.9-0.4,1.6-0.7,2c-0.3,0.4-0.7,0.7-1.2,0.9
		c-0.5,0.2-1.2,0.3-2.2,0.5l-0.5,0.1l0.4-2.1c0.4-0.1,0.6-0.1,0.8-0.2c0.2-0.1,0.3-0.4,0.4-1l1.8-8.9l6.9-1L176.1,124.3z"/>
	<path class="st1" d="M183.9,123.2l-2.5,0.4l1.1-5.5l-2.7,5.7l-2.6,0.4l2.4-12.1l2.5-0.4l-1.1,5.4l2.8-5.7l2.5-0.4L183.9,123.2z"/>
	<path class="st1" d="M192.2,112.6l-2.2,0.3l-1.9,9.7l-3,0.4l2.4-12.1l5.2-0.7L192.2,112.6z"/>
	<path class="st1" d="M198.7,109.3l-0.7,11.8l-3,0.4l0.3-2.1l-1.1,0.2l-0.6,2.2l-3.1,0.4l3.9-12.3L198.7,109.3z M195.5,117.3
		c0.1-1.3,0.3-3,0.6-5c-0.8,2.4-1.3,4.1-1.6,5.1L195.5,117.3z"/>
</g>
<path class="st1" d="M169,128.7c0.3,0,0.6-0.3,0.8-0.6l8.8-1.2c0.1,0.2,0.4,0.4,0.7,0.3c0.3,0,0.6-0.3,0.8-0.6l8.8-1.2
	c0.1,0.2,0.4,0.4,0.7,0.3c0.3,0,0.6-0.3,0.9-0.6l8.8-1.2c0.1,0.2,0.4,0.4,0.7,0.3c0.3,0,0.7-0.3,0.9-0.6l8.8-1.2
	c0.1,0.2,0.3,0.4,0.7,0.3c0.3,0,0.7-0.3,0.9-0.6l8.8-1.2c0.1,0.2,0.3,0.4,0.7,0.3c0.3,0,0.7-0.3,0.9-0.6l8.8-1.2
	c0.1,0.2,0.3,0.4,0.6,0.3s0.7-0.3,0.9-0.6l10-1.4l0.3-1l-10,1.4c-0.1-0.3-0.3-0.4-0.6-0.3c-0.3,0-0.7,0.3-0.9,0.6l-8.9,1.2
	c-0.1-0.3-0.3-0.4-0.7-0.3c-0.3,0-0.7,0.3-0.9,0.6l-8.9,1.2c-0.1-0.2-0.3-0.4-0.7-0.3c-0.3,0-0.7,0.3-0.9,0.6l-8.9,1.2
	c-0.1-0.2-0.4-0.4-0.7-0.3c-0.3,0-0.7,0.3-0.9,0.6l-8.8,1.2c-0.1-0.2-0.4-0.4-0.7-0.3c-0.3,0-0.7,0.3-0.9,0.6l-8.9,1.2
	c-0.1-0.2-0.4-0.4-0.7-0.3c-0.3,0-0.6,0.3-0.8,0.6l-8.9,1.2c-0.1-0.2-0.4-0.4-0.7-0.3c-0.1,0-0.2,0.1-0.3,0.1l-0.1,1.7
	C168.9,128.7,169,128.7,169,128.7z"/>
<path class="st2" d="M169.1,134.2l8.7-1.2c0.1,0.2,0.4,0.4,0.7,0.3c0.3,0,0.6-0.3,0.8-0.5l8.7-1.2c0.1,0.2,0.4,0.4,0.7,0.3
	c0.3,0,0.6-0.3,0.8-0.5l8.7-1.2c0.1,0.2,0.3,0.4,0.7,0.3c0.3,0,0.6-0.3,0.9-0.5l8.7-1.2c0.1,0.2,0.3,0.4,0.7,0.3
	c0.3,0,0.6-0.3,0.9-0.5l8.7-1.2c0.1,0.2,0.3,0.4,0.6,0.3c0.3,0,0.7-0.3,0.9-0.5l8.7-1.2c0.1,0.2,0.3,0.4,0.6,0.3
	c0.3,0,0.7-0.3,0.9-0.5l9.8-1.4l0.3-0.9l-9.9,1.4c-0.1-0.2-0.3-0.4-0.6-0.3c-0.3,0-0.7,0.3-0.9,0.6l-8.7,1.2
	c-0.1-0.2-0.3-0.4-0.6-0.3c-0.3,0-0.7,0.3-0.9,0.5l-8.7,1.2c-0.1-0.2-0.3-0.4-0.7-0.3c-0.3,0-0.6,0.3-0.9,0.5l-8.7,1.2
	c-0.1-0.2-0.3-0.4-0.7-0.3c-0.3,0-0.6,0.3-0.9,0.5l-8.7,1.2c-0.1-0.2-0.4-0.4-0.7-0.3c-0.3,0-0.6,0.3-0.8,0.5l-8.7,1.2
	c-0.1-0.2-0.4-0.4-0.7-0.3c-0.3,0-0.6,0.3-0.8,0.5l-8.7,1.2c-0.1-0.2-0.4-0.4-0.7-0.3l-0.1,1.7C168.7,134.6,168.9,134.5,169.1,134.2
	z"/>
<path class="st1" d="M168.3,140.3l8.5-1.2c0.1,0.2,0.4,0.4,0.7,0.3c0.3,0,0.6-0.3,0.8-0.5l8.5-1.2c0.1,0.2,0.4,0.4,0.7,0.3
	c0.3,0,0.6-0.3,0.8-0.5l8.5-1.2c0.1,0.2,0.3,0.4,0.7,0.3c0.3,0,0.6-0.3,0.8-0.5l8.5-1.2c0.1,0.2,0.3,0.4,0.6,0.3
	c0.3,0,0.6-0.3,0.8-0.5l8.5-1.2c0.1,0.2,0.3,0.4,0.6,0.3c0.3,0,0.6-0.3,0.9-0.5l8.5-1.2c0.1,0.2,0.3,0.4,0.6,0.3
	c0.3,0,0.6-0.3,0.9-0.5l9.7-1.4l0.3-0.9l-9.7,1.4c-0.1-0.2-0.3-0.4-0.6-0.3c-0.3,0-0.6,0.3-0.9,0.5l-8.6,1.2
	c-0.1-0.2-0.3-0.4-0.6-0.3c-0.3,0-0.6,0.3-0.9,0.5l-8.6,1.2c-0.1-0.2-0.3-0.4-0.6-0.3c-0.3,0-0.6,0.3-0.9,0.5l-8.6,1.2
	c-0.1-0.2-0.3-0.4-0.7-0.3c-0.3,0-0.6,0.3-0.8,0.5l-8.5,1.2c-0.1-0.2-0.4-0.4-0.7-0.3c-0.3,0-0.6,0.3-0.8,0.5l-8.6,1.2
	c-0.1-0.2-0.4-0.4-0.7-0.3c-0.3,0-0.6,0.3-0.8,0.5l-8.6,1.2c-0.1-0.1-0.1-0.2-0.3-0.3l-0.1,1.4C168.2,140.5,168.2,140.4,168.3,140.3
	z"/>
<path class="st2" d="M176,144.9c0.1,0.2,0.4,0.3,0.7,0.3c0.3,0,0.6-0.2,0.8-0.5l8.4-1.2c0.1,0.2,0.3,0.3,0.7,0.3
	c0.3,0,0.6-0.2,0.8-0.5l8.4-1.2c0.1,0.2,0.3,0.3,0.7,0.3c0.3,0,0.6-0.2,0.8-0.5l8.4-1.2c0.1,0.2,0.3,0.3,0.6,0.3
	c0.3,0,0.6-0.2,0.8-0.5l8.4-1.2c0.1,0.2,0.3,0.3,0.6,0.3c0.3,0,0.6-0.2,0.8-0.5l8.4-1.2c0.1,0.2,0.3,0.4,0.6,0.3
	c0.3,0,0.6-0.2,0.9-0.5l9.5-1.3l0.3-0.9l-9.5,1.3c-0.1-0.2-0.3-0.4-0.6-0.3c-0.3,0-0.6,0.2-0.9,0.5l-8.4,1.2
	c-0.1-0.2-0.3-0.4-0.6-0.3c-0.3,0-0.6,0.2-0.8,0.5l-8.4,1.2c-0.1-0.2-0.3-0.4-0.6-0.3c-0.3,0-0.6,0.2-0.8,0.5l-8.4,1.2
	c-0.1-0.2-0.3-0.3-0.7-0.3c-0.3,0-0.6,0.2-0.8,0.5l-8.4,1.2c-0.1-0.2-0.3-0.3-0.7-0.3c-0.3,0-0.6,0.2-0.8,0.5l-8.4,1.2
	c-0.1-0.2-0.4-0.3-0.7-0.3c-0.3,0-0.6,0.2-0.8,0.5l-8.3,1.2l-0.1,0.8L176,144.9z"/>
<g>
	<path class="st1" d="M159.6,102.4l-0.1-1l-1.4,0.2l-0.2-1.9l-3.3,0.5l-0.3-3.4L153,97l-0.2-1.7l-2,0.3c0-0.1,0-0.1,0-0.2
		c0-0.2,0-0.3,0-0.5c0.2-0.7,1.1-2,1.1-2.1c0.4-0.6,0.9-1.2,1.3-1.8c0.3-0.3,0.4-0.7,0.3-1.2c0-0.2,0-0.5-0.1-0.7
		c0.1-0.1,0.2-0.1,0.4-0.2c-0.1-0.1-0.8-2.2-2.3-4.1c0-0.7,0.1-1.3,0.4-1.9c0.2-0.3,0.3-0.7,0.5-1.1c0.1-0.2,0.2-0.4,0.3-0.6
		c0.3-0.4,0.7-0.9,0.7-1.5c0-0.1,0.1-0.1,0.1-0.3c0.2,0,0.4,0.1,0.6,0.1c0.2,0,0.4,0.1,0.6,0.1c0.4-0.1,0.7-0.2,1.1-0.3
		c0,0,0.1,0,0.1,0c0.5,0.1,0.9-0.2,1.2-0.4c0.1-0.1,0.3-0.2,0.4-0.3c0.1,0,0.3,0,0.3,0c0.1,0,0.3,0.1,0.4,0.1c0.7,0.2,1-0.1,1-0.8
		c0.2-1-1.5-1.6-2.1-0.5c-0.1,0.1-0.1,0.2-0.1,0.3c-0.1,0-0.2,0-0.3,0c-0.2,0-0.4,0-0.6,0.1c-0.4,0.2-0.7,0.3-1.1,0.2
		c-0.1,0-0.1,0-0.2,0c-0.2-0.1-0.5-0.1-0.7-0.2c-0.4-0.2-0.9-0.4-1.4-0.2c-0.1,0-0.2,0-0.3,0.1c-0.1,0-0.1,0.1-0.2,0.1
		c0-0.1,0.1-0.3,0.1-0.4c0.2-0.1,0.7,0,0.8-0.1c0.1-0.3,0-0.5,0-0.8c0,0,0.2,0,0.2-0.1c-0.1-0.4-0.3-0.4-0.3-0.7
		c0.1-0.2-0.1-0.7-0.1-0.9c-0.3-0.2-1.1-0.5-1.9-0.2c-0.6,0.3-0.8,0.8-0.7,1.4c0,0.2,0.1,0.4,0.2,0.5c0.1,0.2,0.2,0.3,0.2,0.5
		c-0.2,0.5-0.8,0.7-1.2,0.7c-0.7,0-1.6,0.2-1.9,1.1c0,0.1-0.1,0.2-0.2,0.2c-0.2,0.2-0.4,0.5-0.6,0.7c-0.2,0.2-0.3,0.5-0.6,0.7
		c-0.3,0.2-0.4,1.2-0.5,1.3c-0.4,0.5-0.4,1-0.2,1.5c0.1,0.4,0.4,0.6,0.9,0.6c0.3,0,0.5-0.1,0.8-0.2c0.4-0.2,0.6-0.5,0.4-0.9
		c-0.2-0.6-0.3-0.7-1.2-0.6c0,0,0.1-0.1,0.4-0.1c0.3-0.8,0.9-0.6,1.4-1.5c0.1,0.4,0.2,0.7,0.2,1c0.1,0.4,0.2,0.7,0.2,1.1
		c0,0.5-0.2,1.2-0.4,1.6c-1.3,2.2-1.3,4.9-1.3,4.9c0.1,0,0.1,0.1,0.2,0.1c0,0.3-0.2,0.5-0.4,0.7c-0.1,0.1-0.2,0.2-0.4,0.2
		c-0.7,0.4-1.1,0.9-1.4,1.7c-0.2,0.7-0.5,1.3-0.8,2c-0.1,0-0.9,0.7-1.2,1c-0.1,0.3,0.4,1,0.9,1.4l0,0l0.1,1.7l-1.1,0.2l0.2,3.4
		l-3.3,0.5l0.1,1.9l-1.4,0.2l0.1,1l0.7,1.6c4.6-0.7,11.8-1.8,19.7-2.9L159.6,102.4z M150.2,92.7c-0.2,0.5-0.4,1.5-0.5,1.4
		c-0.2,0.1-0.3,0.2-0.5,0.3c-0.1,0.1-0.2,0.2-0.4,0.3c-0.4,0.4-0.5,0.7-0.2,1.1l-0.2,0l-3.2,0.5c-0.1-0.6-0.1-1.6-0.1-1.6
		c0.5-0.7,2.3-3.3,2.7-3.7c0.9-0.9,1.7-1.5,2-2.2c0.3,0.7,1.4,1.2,1.4,1.6c0,0-0.3,0.2-0.6,0.8C150.5,91.8,150.3,92.3,150.2,92.7z"
		/>
</g>
<g>
	<path class="st1" d="M200.9,96.4l-0.2-0.9l-1.4,0.2l-0.4-1.9l-3.3,0.5l-0.7-3.3l-1.1,0.2l-0.3-1.5c0,0,0,0,0,0c0,0,0,0,0,0l0-0.1
		l0,0c-0.2-0.3-0.3-0.6-0.4-0.9c-0.1-0.1-0.2-0.3-0.3-0.4c-0.3-0.1-0.4-0.4-0.5-0.6c-0.3-0.7-0.6-1.3-0.9-2
		c-0.2-0.4-0.5-0.7-0.9-0.9c-0.2-0.1-0.4-0.2-0.5-0.3c-0.1-0.1-0.2-0.2-0.3-0.4c0.4-0.3,0.4-0.7,0.3-1.2c-0.1-0.3-0.2-0.6-0.3-0.8
		c-0.1-0.3-0.2-0.7-0.1-1c0-0.1,0-0.3,0-0.4c-0.1-0.3-0.1-0.6-0.2-0.8c-0.1-0.2-0.1-0.4-0.2-0.6c-0.1-0.2-0.3-0.3-0.4-0.5
		c-0.2-0.3-0.3-0.5-0.2-0.9c0.1-0.2,0.1-0.5,0.2-0.7c0.3-0.8,0.3-1.7,0-2.5c-0.1-0.4-0.7-1-0.7-1c0,0-0.9-0.8-1.1-0.9
		c-0.3-0.2-0.4-0.5-0.3-0.9c0-0.2,0-0.4,0-0.6c-0.2-0.6-0.6-1-1.2-1c-0.9,0-1.5,0.5-1.7,0.8c0.1,0.1,0.1,0.7,0.3,0.9
		c0.1,0.2,0,0.3,0,0.7c0.1,0,0.2,0,0.2,0c0.1,0.2,0.1,0.5,0.3,0.7c0.1,0.1,0.5-0.1,0.7-0.2c0.1,0.1,0.2,0.3,0.3,0.5
		c-0.5,0.4-0.9,0.8-1.3,1.2c-0.2-0.1-0.4-0.2-0.5-0.4c-0.2-0.4-0.5-0.5-0.9-0.5c-0.6,0-1,0.5-1,1c0,0.3,0.3,0.5,0.6,0.5
		c0.2,0,0.3,0,0.4-0.1c0.3,0.1,0.5,0.1,0.8,0.2c-0.3,0.3-0.5,0.5-0.8,0.8c-0.3-0.2-0.5-0.4-0.8-0.6c-0.3-0.2-0.6-0.4-0.8-0.7
		c-0.2-0.3-0.4-0.7-0.4-1.1c0-0.2-0.5-0.8-1.3-0.3c-0.5,0.3-0.5,0.8,0,1.3c0.2,0.2,0.5,0.4,0.7,0.7c0.2,0.2,0.4,0.3,0.5,0.3
		c0.5,0.5,1.1,1,1.6,1.5c0.4,0.4,0.5,0.2,1,0.1c0.7-0.1,1.5-0.4,1.9-0.8c-0.2,0.9,0.7,3.4,0.3,4.2c-0.1,0.1-0.1,0.2-0.2,0.4
		c-0.1,0.2-0.3,0.4-0.4,0.6c-0.4,0.9-0.5,1.8-0.6,2.8c0.2,0.1,0.3,0.1,0.5,0.2c0,0.1,0,0.2,0,0.3c0,0.5,0,0.9,0.3,1.3
		c0.1,0.2,0.2,0.4,0.2,0.6c0.1,0.4,0.2,0.7,0.3,1.1c0,0.1,0,0.2,0.1,0.3c0,0.2,0.1,0.4,0.1,0.7c0.1,0.5,0.2,1,0.4,1.5l-1.3,0.2
		l0.2,0.9c-0.1,0.1-0.3,0.1-0.4,0.2c-0.2,0.1-0.4,0.3-0.4,0.5c0,0.1,0,0.1,0,0.2l-0.2,0l0.6,3.3l-3.3,0.5l0.3,1.9l-1.4,0.2l0.2,0.9
		l0.9,1.6c9.2-1.3,16.9-2.4,19.7-2.8L200.9,96.4z M191.4,89.3c-0.1,0.2-0.1,0.4-0.1,0.5l-2.4,0.3l-1.8,0.3c0,0,0,0,0-0.1
		c0-0.6,0-1.2,0-1.8c0-0.1-0.1-0.3,0-0.4c0.1-0.5-0.1-0.9-0.3-1.3c-0.1-0.2-0.3-0.5-0.4-0.7c-0.2-0.5,0.8-1.5,1.2-1.9
		c0.3,0.1,0.5,0.3,0.6,0.7c0,0.1,0.2,0.3,0.3,0.4c0.6,0.4,1,0.7,1.5,1.2c0.1,0.1,0.1,0.2,0.2,0.3c0,0,0,0,0,0
		c0.5,0.6,0.9,1.2,1.4,1.8C191.4,88.9,191.5,89.1,191.4,89.3z"/>
</g>
<path class="st1" d="M204.3,115.7l-2.5-10.8l0.1,0c0,0,0.4-0.1,0.3-0.5c-0.1-0.3-0.4-0.3-0.5-0.3l-0.1,0l0-0.1l-0.3-1.2l-1.7,13.6
	L204.3,115.7z"/>
<path class="st2" d="M202,103.6c0.3,0.1,0.6,0.3,0.7,0.8c0.1,0.4-0.1,0.7-0.3,0.9l2.4,10.4l0.1,0.3l7.9-1.1l-2.9-11l0.9-2.4
	l-0.4-1.5l-1.6,0.2l-0.3-1.1l-7,1l-0.2,1.2L202,103.6z"/>
<path class="st2" d="M160.2,42.2c-0.5,0.2-0.8,0.3-0.8,0.6c0,0.1,0,0.1,0.1,0.1c0.1,0.2,0.4,0.6,0.5,0.9c0.1,0.4,0.1,1.1,0.1,1.1
	l0,0c0,0,0,0,0,0c0,0.1,0.1,0.1,0.2,0.2c-0.2,0.1-0.6,0.3-0.9,0.6c-0.3,0.2-0.4,0.4-0.5,0.5c-0.1,0.1-0.1,0.2-0.1,0.3
	c0,0.1,0.1,0.2,0.1,0.2l0,0c0,0,0.9,0.6,1.2,1.2c0.2,0.4,0.2,0.7,0.2,0.8c0,0,0,0,0,0c0,0,0,0,0,0l0,0c0,0,0,0,0,0
	c0,0.1,0,0.1,0.1,0.1l0,0c0,0,0.4,0.3,0.2,0.6c-0.1,0.2-0.9,0.8-1.5,1.2c-0.1,0-0.1,0.1-0.2,0.1c0,0,0,0,0,0l0,0
	c-0.2,0.2-0.3,0.3-0.3,0.5l0.1,0.8c-0.2,0.2-0.3,0.3-0.3,0.5l0.2,1.4c0,0.1,0.1,0.2,0.3,0.3l0.2,1.6l-2.2,1.8l0.1,0.8l-0.5,0.7
	l0.7,0.8l0.8,6.8l-0.6,0.9l-1.2,0.2l0.1,0.8l-0.6,0.7l0.6,0.6l0.3,2.2l-2.8,0.4l-0.9,1.2l0.2,0.6c0.1,0,0.2,0.1,0.3,0.1l0.2,0.2
	l-0.1,0.3c0,0,0,0.1,0,0.2c0,0.2,0.1,0.4,0,0.6c0,0,0,0.1,0,0.1c0.1,0.1,0.1,0.2,0.2,0.4l0.1,0.2l-0.1,0.2c0,0.1-0.1,0.1-0.1,0.2
	c0,0.1,0,0.2,0,0.4c0.3,0,0.5,0.1,0.8,0.3c0.1,0,0.2,0.1,0.3,0.1c0.1,0,0.1,0,0.2,0l0,0c0.1,0,0.1,0,0.2,0c0.1,0,0.3,0,0.4,0
	c0.1,0,0.3-0.1,0.4-0.1c0.1-0.1,0.2-0.1,0.4-0.1c0.1,0,0.2,0,0.3,0c0,0,0.1,0,0.1,0c0,0,0-0.1,0-0.1c0.2-0.4,0.7-0.7,1.1-0.8
	c0.5-0.1,1.1,0.1,1.5,0.5c0.3,0.3,0.4,0.7,0.4,1.1c0,0.8-0.5,1.2-1,1.3c-0.2,0-0.4,0-0.7-0.1c-0.1,0-0.2,0-0.3-0.1c0,0-0.1,0-0.1,0
	c0,0-0.1,0-0.2,0c-0.1,0.1-0.2,0.1-0.2,0.2l0,0c-0.3,0.2-0.7,0.5-1.1,0.5c-0.1,0-0.3,0-0.4,0c-0.1,0-0.2,0.1-0.3,0.1
	c-0.3,0.1-0.5,0.1-0.8,0.2l0,0l0,0c-0.2,0-0.4,0-0.6,0c0,0-0.1,0-0.1,0c0,0,0,0-0.1,0l1.8,16.8l-0.2,0.7l0.2,1.8l2-0.3l0.5-0.1
	l0.1,0.5l0.2,1.4l0.9-0.1l0.5-0.1l0.1,0.5l0.1,1l0,0.1l0,0.1l-0.4,1.5c6.8-1,14.1-2,20.7-3l-0.8-1.4l0-0.1l0-0.1l-0.2-0.9l-0.1-0.5
	l0.5-0.1l0.9-0.1l-0.2-1.3l-0.1-0.5l0.5-0.1l2-0.3l-0.3-1.7l-0.4-0.6L179,75.5c0,0-0.1-0.1-0.1-0.1c-0.4-0.3-0.5-0.7-0.5-1.1
	c0-0.2,0.1-0.5,0.3-0.7l-0.3-1.5l0.1-1.9l-1.2-0.9l-2.8,0.4l-0.4-2.2l0.4-0.7l-0.7-0.5l-0.1-0.8l-1.2,0.2l-0.8-0.7l-1.1-6.8l0.4-1
	l-0.7-0.5l-0.1-0.8l-2.6-1.1l-0.3-1.6c0.1-0.1,0.2-0.2,0.2-0.4l0,0l-0.2-1.3l0,0c0,0,0,0,0,0c0-0.2-0.2-0.3-0.5-0.4l-0.1-0.8l0,0
	c0,0,0,0,0,0c0-0.1-0.1-0.2-0.3-0.3l0,0c0,0,0,0,0,0c-0.1,0-0.2-0.1-0.3-0.1c-0.7-0.2-1.6-0.6-1.7-0.7c-0.2-0.2,0-0.6,0-0.6l0,0
	c0,0,0-0.1,0-0.1c0,0,0,0,0-0.1h0c0,0-0.1-0.3,0-0.8c0.2-0.7,0.8-1.5,0.8-1.5l0,0c0.1-0.1,0.1-0.2,0.1-0.2c0-0.1-0.1-0.1-0.1-0.2
	c0,0-0.2-0.2-0.6-0.4c-0.4-0.2-0.8-0.3-1-0.3c0.1-0.1,0.1-0.1,0.1-0.2c0,0,0,0,0,0l0,0c0,0-0.2-0.6-0.2-1c0-0.3,0.2-0.9,0.2-1.1"/>
<g>
	<path class="st1" d="M131.1,117.4l-8.6,1.2c-0.1-0.2-0.4-0.4-0.7-0.3c-0.3,0-0.6,0.3-0.8,0.6l-8.8,1.2c-0.1-0.2-0.4-0.4-0.7-0.3
		c-0.3,0-0.6,0.3-0.9,0.6l-8.8,1.2c-0.1-0.2-0.4-0.4-0.7-0.3c-0.3,0-0.7,0.3-0.9,0.6l-8.8,1.2c-0.1-0.2-0.3-0.4-0.7-0.3
		c-0.3,0-0.7,0.3-0.9,0.6l-8.8,1.2c-0.1-0.2-0.3-0.4-0.7-0.3c-0.3,0-0.7,0.3-0.9,0.6l-8.8,1.2c-0.1-0.2-0.3-0.4-0.6-0.3
		s-0.7,0.3-0.9,0.6l-10,1.4l-0.3,1l10-1.4c0.1,0.3,0.3,0.4,0.6,0.3c0.3,0,0.7-0.3,0.9-0.6l8.9-1.2c0.1,0.3,0.3,0.4,0.7,0.3
		s0.7-0.3,0.9-0.6l8.9-1.2c0.1,0.2,0.3,0.4,0.7,0.3c0.3,0,0.7-0.3,0.9-0.6l8.9-1.2c0.1,0.2,0.4,0.4,0.7,0.3c0.3,0,0.7-0.3,0.9-0.6
		l8.8-1.2c0.1,0.2,0.4,0.4,0.7,0.3c0.3,0,0.7-0.3,0.9-0.6l8.9-1.2c0.1,0.2,0.4,0.4,0.7,0.3c0.3,0,0.6-0.3,0.8-0.6l8.9-1.2
		c0.1,0.2,0.4,0.4,0.7,0.3l0-0.2C131.5,118.1,131.3,117.8,131.1,117.4z"/>
	<path class="st2" d="M71.2,121.1c0.3,0,0.7-0.3,0.9-0.6l8.7-1.2c0.1,0.2,0.3,0.4,0.6,0.3s0.7-0.3,0.9-0.5l8.7-1.2
		c0.1,0.2,0.3,0.4,0.7,0.3c0.3,0,0.6-0.3,0.9-0.5l8.7-1.2c0.1,0.2,0.3,0.4,0.7,0.3c0.3,0,0.6-0.3,0.9-0.5l8.7-1.2
		c0.1,0.2,0.4,0.4,0.7,0.3c0.3,0,0.6-0.3,0.8-0.5l8.7-1.2c0.1,0.2,0.4,0.4,0.7,0.3c0.3,0,0.6-0.3,0.8-0.5l8.2-1.2l0.2-0.9l-8.3,1.1
		c-0.1-0.2-0.4-0.4-0.7-0.3c-0.3,0-0.6,0.3-0.8,0.5l-8.7,1.2c-0.1-0.2-0.4-0.4-0.7-0.3c-0.3,0-0.6,0.3-0.8,0.5l-8.7,1.2
		c-0.1-0.2-0.3-0.4-0.7-0.3c-0.3,0-0.6,0.3-0.9,0.5l-8.7,1.2c-0.1-0.2-0.3-0.4-0.7-0.3c-0.3,0-0.6,0.3-0.9,0.5l-8.7,1.2
		c-0.1-0.2-0.3-0.4-0.6-0.3c-0.3,0-0.7,0.3-0.9,0.5l-8.7,1.2c-0.1-0.2-0.3-0.4-0.6-0.3c-0.3,0-0.7,0.3-0.9,0.5l-9.8,1.4l-0.3,0.9
		l9.9-1.4C70.7,121,70.9,121.2,71.2,121.1z"/>
	<path class="st1" d="M73.1,114.9c0.3,0,0.6-0.3,0.9-0.5l8.6-1.2c0.1,0.2,0.3,0.4,0.6,0.3c0.3,0,0.6-0.3,0.9-0.5l8.6-1.2
		c0.1,0.2,0.3,0.4,0.6,0.3c0.3,0,0.6-0.3,0.9-0.5l8.6-1.2c0.1,0.2,0.3,0.4,0.7,0.3c0.3,0,0.6-0.3,0.8-0.5l8.5-1.2
		c0.1,0.2,0.4,0.4,0.7,0.3c0.3,0,0.6-0.3,0.8-0.5l8.6-1.2c0.1,0.2,0.4,0.4,0.7,0.3c0.3,0,0.6-0.3,0.8-0.5l8.6-1.2
		c0.1,0.2,0.4,0.4,0.7,0.3c0.3,0,0.6-0.3,0.8-0.5l4-0.6l0-0.8l0,0l-3.9,0.5c-0.1-0.2-0.4-0.4-0.7-0.3c-0.3,0-0.6,0.3-0.8,0.5
		l-8.5,1.2c-0.1-0.2-0.4-0.4-0.7-0.3c-0.3,0-0.6,0.3-0.8,0.5l-8.5,1.2c-0.1-0.2-0.4-0.4-0.7-0.3c-0.3,0-0.6,0.3-0.8,0.5l-8.5,1.2
		c-0.1-0.2-0.3-0.4-0.7-0.3c-0.3,0-0.6,0.3-0.8,0.5l-8.5,1.2c-0.1-0.2-0.3-0.4-0.6-0.3c-0.3,0-0.6,0.3-0.8,0.5l-8.5,1.2
		c-0.1-0.2-0.3-0.4-0.6-0.3c-0.3,0-0.6,0.3-0.9,0.5l-8.5,1.2c-0.1-0.2-0.3-0.4-0.6-0.3c-0.3,0-0.6,0.3-0.9,0.5L63,115l-0.3,0.9
		l9.7-1.4C72.5,114.8,72.8,114.9,73.1,114.9z"/>
	<path class="st2" d="M74.8,108.9c0.3,0,0.6-0.2,0.9-0.5l8.4-1.2c0.1,0.2,0.3,0.4,0.6,0.3c0.3,0,0.6-0.2,0.8-0.5l8.4-1.2
		c0.1,0.2,0.3,0.4,0.6,0.3c0.3,0,0.6-0.2,0.8-0.5l8.4-1.2c0.1,0.2,0.3,0.3,0.7,0.3c0.3,0,0.6-0.2,0.8-0.5l8.4-1.2
		c0.1,0.2,0.3,0.3,0.7,0.3c0.3,0,0.6-0.2,0.8-0.5l8.4-1.2c0.1,0.2,0.4,0.3,0.7,0.3c0.3,0,0.6-0.2,0.8-0.5l8.4-1.2
		c0.1,0.2,0.4,0.3,0.7,0.3c0.3,0,0.6-0.2,0.8-0.5l7.7-1.1l0-0.5l0-0.4l-7.5,1.1c-0.1-0.2-0.4-0.3-0.7-0.3c-0.3,0-0.6,0.2-0.8,0.5
		l-8.4,1.2c-0.1-0.2-0.4-0.3-0.7-0.3c-0.3,0-0.6,0.2-0.8,0.5l-8.4,1.2c-0.1-0.2-0.3-0.3-0.7-0.3c-0.3,0-0.6,0.2-0.8,0.5l-8.4,1.2
		c-0.1-0.2-0.3-0.3-0.7-0.3c-0.3,0-0.6,0.2-0.8,0.5l-8.4,1.2c-0.1-0.2-0.3-0.3-0.6-0.3c-0.3,0-0.6,0.2-0.8,0.5l-8.4,1.2
		c-0.1-0.2-0.3-0.3-0.6-0.3c-0.3,0-0.6,0.2-0.8,0.5l-8.4,1.2c-0.1-0.2-0.3-0.4-0.6-0.3c-0.3,0-0.6,0.2-0.9,0.5l-9.5,1.3l-0.3,0.9
		l9.5-1.3C74.3,108.8,74.5,109,74.8,108.9z"/>
	<path class="st1" d="M143.6,98l-0.5,0.1l-0.4,0.1l0,0L143.6,98C143.5,98,143.5,98,143.6,98z"/>
</g>
<path class="st2" d="M179.7,99.7L179.7,99.7l-0.1-0.2l-0.2-0.9l-0.1-0.5l0.5-0.1l0.9-0.1l-0.2-1.3l-0.1-0.5l0.5-0.1l2-0.3l-0.3-1.7
	l-0.4-0.6L179,75.5c0,0-0.1-0.1-0.1-0.1c-0.4-0.3-0.5-0.7-0.5-1.1c0-0.2,0.1-0.5,0.3-0.7l-0.3-1.5l0.1-1.9l-1.2-0.9l-2.8,0.4
	l-0.4-2.2l0.4-0.7l-0.7-0.5l-0.1-0.8l-1.2,0.2l-0.8-0.7l-1.1-6.8l0.4-1l-0.7-0.5l-0.1-0.8l-2.6-1.1l-0.3-1.6
	c0.1-0.1,0.2-0.2,0.2-0.4l0,0l-0.2-1.3l0,0c0,0,0,0,0,0c0-0.2-0.2-0.3-0.5-0.4l-0.1-0.8l0,0c0,0,0,0,0,0c0-0.1-0.1-0.2-0.3-0.3l0,0
	c0,0,0,0,0,0c-0.1,0-0.2-0.1-0.3-0.1c-0.7-0.2-1.6-0.6-1.7-0.7c-0.2-0.2,0-0.6,0-0.6l0,0c0,0,0-0.1,0-0.1c0,0,0,0,0-0.1h0
	c0,0-0.1-0.3,0-0.8c0.2-0.7,0.8-1.5,0.8-1.5l0,0c0.1-0.1,0.1-0.2,0.1-0.2c0-0.1-0.1-0.1-0.1-0.2c0,0-0.2-0.2-0.6-0.4
	c-0.4-0.2-0.8-0.3-1-0.3c0.1-0.1,0.1-0.1,0.1-0.2c0,0,0,0,0,0l0,0c0,0-0.2-0.6-0.2-1c0-0.3,0.2-0.9,0.2-1.1c0,0,0-0.1,0-0.1
	c0-0.2-0.4-0.3-0.9-0.3L159,25.7l1.2,16.5c-0.5,0.2-0.8,0.3-0.8,0.6c0,0.1,0,0.1,0.1,0.1c0.1,0.2,0.4,0.6,0.5,0.9
	c0.1,0.4,0.1,1.1,0.1,1.1l0,0c0,0,0,0,0,0c0,0.1,0.1,0.1,0.2,0.2c-0.2,0.1-0.6,0.3-0.9,0.6c-0.3,0.2-0.4,0.4-0.5,0.5
	c-0.1,0.1-0.1,0.2-0.1,0.3c0,0.1,0.1,0.2,0.1,0.2l0,0c0,0,0.9,0.6,1.2,1.2c0.2,0.4,0.2,0.7,0.2,0.8c0,0,0,0,0,0c0,0,0,0,0,0l0,0
	c0,0,0,0,0,0c0,0.1,0,0.1,0.1,0.1l0,0c0,0,0.4,0.3,0.2,0.6c-0.1,0.2-0.9,0.8-1.5,1.2c-0.1,0-0.1,0.1-0.2,0.1c0,0,0,0,0,0l0,0
	c-0.2,0.2-0.3,0.3-0.3,0.5l0.1,0.8c-0.2,0.2-0.3,0.3-0.3,0.5l0.2,1.4c0,0.1,0.1,0.2,0.3,0.3l0.2,1.6l-2.2,1.8l0.1,0.8l-0.5,0.7
	l0.7,0.8l0.8,6.8l-0.6,0.9l-1.2,0.2l0.1,0.8l-0.6,0.7l0.6,0.6l0.3,2.2l-2.8,0.4l-0.9,1.2l0.2,0.6c0.1,0,0.2,0.1,0.3,0.1l0.2,0.2
	l-0.1,0.3c0,0,0,0.1,0,0.2c0,0.2,0.1,0.4,0,0.6c0,0,0,0.1,0,0.1c0.1,0.1,0.1,0.2,0.2,0.4l0.1,0.2l-0.1,0.2c0,0.1-0.1,0.1-0.1,0.2
	c0,0.1,0,0.2,0,0.4c0.3,0,0.5,0.1,0.8,0.3c0.1,0,0.2,0.1,0.3,0.1c0.1,0,0.1,0,0.2,0l0,0c0.1,0,0.1,0,0.2,0c0.1,0,0.3,0,0.4,0
	c0.1,0,0.3-0.1,0.4-0.1c0.1-0.1,0.2-0.1,0.4-0.1c0.1,0,0.2,0,0.3,0c0,0,0.1,0,0.1,0c0,0,0-0.1,0-0.1c0.2-0.4,0.7-0.7,1.1-0.8
	c0.5-0.1,1.1,0.1,1.5,0.5c0.3,0.3,0.4,0.7,0.4,1.1c0,0.8-0.5,1.2-1,1.3c-0.2,0-0.4,0-0.7-0.1c-0.1,0-0.2,0-0.3-0.1c0,0-0.1,0-0.1,0
	c0,0-0.1,0-0.2,0c-0.1,0.1-0.2,0.1-0.2,0.2l0,0c-0.3,0.2-0.7,0.5-1.1,0.5c-0.1,0-0.3,0-0.4,0c-0.1,0-0.2,0.1-0.3,0.1
	c-0.3,0.1-0.5,0.1-0.8,0.2l0,0l0,0c-0.2,0-0.4,0-0.6,0c0,0-0.1,0-0.1,0c0,0,0,0-0.1,0l1.8,16.8l-0.2,0.7l0.2,1.8l2-0.3l0.5-0.1
	l0.1,0.5l0.2,1.4l0.9-0.1l0.5-0.1l0.1,0.5l0.1,1l0,0.1l0,0.1l-0.4,1.5c6.8-1,14.1-2,20.7-3L179.7,99.7z"/>
</svg>
